<?xml version="1.0" encoding="UTF-8"?>
<svg version="1.1" xmlns="http://www.w3.org/2000/svg" width="64" height="64">
<path d="M0 0 C3.96 0 7.92 0 12 0 C12.66 1.65 13.32 3.3 14 5 C17.33333333 6.58333333 17.33333333 6.58333333 21 7 C23.19129861 6.10295879 23.19129861 6.10295879 25 5 C26.15224028 5.92961422 27.29659176 6.8690125 28.4375 7.8125 C29.07558594 8.33457031 29.71367188 8.85664063 30.37109375 9.39453125 C32 11 32 11 33 14 C32.62875 14.763125 32.2575 15.52625 31.875 16.3125 C30.66845665 19.09989584 30.66845665 19.09989584 32.125 22.25 C33.84894877 25.43322858 33.84894877 25.43322858 38 26 C38 29.96 38 33.92 38 38 C36.35 38.66 34.7 39.32 33 40 C31.41666667 43.33333333 31.41666667 43.33333333 31 47 C31.89704121 49.19129861 31.89704121 49.19129861 33 51 C32.07038578 52.15224028 31.1309875 53.29659176 30.1875 54.4375 C29.66542969 55.07558594 29.14335938 55.71367188 28.60546875 56.37109375 C27 58 27 58 24 59 C23.236875 58.62875 22.47375 58.2575 21.6875 57.875 C18.90010416 56.66845665 18.90010416 56.66845665 15.75 58.125 C12.56677142 59.84894877 12.56677142 59.84894877 12 64 C8.04 64 4.08 64 0 64 C-0.66 62.35 -1.32 60.7 -2 59 C-5.33333333 57.41666667 -5.33333333 57.41666667 -9 57 C-11.19129861 57.89704121 -11.19129861 57.89704121 -13 59 C-14.15224028 58.07038578 -15.29659176 57.1309875 -16.4375 56.1875 C-17.07558594 55.66542969 -17.71367187 55.14335938 -18.37109375 54.60546875 C-20 53 -20 53 -21 50 C-20.62875 49.236875 -20.2575 48.47375 -19.875 47.6875 C-18.66845665 44.90010416 -18.66845665 44.90010416 -20.125 41.75 C-21.84894877 38.56677142 -21.84894877 38.56677142 -26 38 C-26 34.04 -26 30.08 -26 26 C-24.35 25.34 -22.7 24.68 -21 24 C-19.41666667 20.66666667 -19.41666667 20.66666667 -19 17 C-19.89704121 14.80870139 -19.89704121 14.80870139 -21 13 C-20.07038578 11.84775972 -19.1309875 10.70340824 -18.1875 9.5625 C-17.66542969 8.92441406 -17.14335937 8.28632813 -16.60546875 7.62890625 C-15 6 -15 6 -12 5 C-11.236875 5.37125 -10.47375 5.7425 -9.6875 6.125 C-6.90010416 7.33154335 -6.90010416 7.33154335 -3.75 5.875 C-0.56677142 4.15105123 -0.56677142 4.15105123 0 0 Z " fill="#01BDBC" transform="translate(26,0)"/>
<path d="M0 0 C4.88767013 2.19070714 7.76200801 4.94335705 10.82421875 9.3046875 C12.4949704 14.31694244 12.88953393 19.60925642 10.91796875 24.59765625 C7.97557798 29.62424049 4.43642438 32.85980525 -1.05078125 35.0546875 C-1.75203125 35.1371875 -2.45328125 35.2196875 -3.17578125 35.3046875 C-4.39265625 35.4490625 -5.60953125 35.5934375 -6.86328125 35.7421875 C-12.34736243 35.66018255 -16.17839597 32.84657505 -20.17578125 29.3046875 C-24.1738361 24.89932411 -24.6800411 20.49854131 -24.44921875 14.68359375 C-24.10652589 11.70216586 -23.33890268 9.06710089 -22.17578125 6.3046875 C-20.19578125 6.3046875 -18.21578125 6.3046875 -16.17578125 6.3046875 C-16.17578125 5.6446875 -16.17578125 4.9846875 -16.17578125 4.3046875 C-16.83578125 3.9746875 -17.49578125 3.6446875 -18.17578125 3.3046875 C-12.16734119 -0.78616531 -7.11627031 -2.27414024 0 0 Z " fill="#FEAC01" transform="translate(38.17578125,14.6953125)"/>
<path d="M0 0 C4.88767013 2.19070714 7.76200801 4.94335705 10.82421875 9.3046875 C12.4949704 14.31694244 12.88953393 19.60925642 10.91796875 24.59765625 C7.97557798 29.62424049 4.43642438 32.85980525 -1.05078125 35.0546875 C-1.75203125 35.1371875 -2.45328125 35.2196875 -3.17578125 35.3046875 C-4.39265625 35.4490625 -5.60953125 35.5934375 -6.86328125 35.7421875 C-12.34736243 35.66018255 -16.17839597 32.84657505 -20.17578125 29.3046875 C-24.1738361 24.89932411 -24.6800411 20.49854131 -24.44921875 14.68359375 C-24.10652589 11.70216586 -23.33890268 9.06710089 -22.17578125 6.3046875 C-20.19578125 6.3046875 -18.21578125 6.3046875 -16.17578125 6.3046875 C-16.17578125 5.6446875 -16.17578125 4.9846875 -16.17578125 4.3046875 C-16.83578125 3.9746875 -17.49578125 3.6446875 -18.17578125 3.3046875 C-12.16734119 -0.78616531 -7.11627031 -2.27414024 0 0 Z M-18.55078125 10.0546875 C-20.5445531 14.04223119 -21.03235775 16.93439922 -20.17578125 21.3046875 C-17.77757096 26.10110808 -14.97220183 28.90647721 -10.17578125 31.3046875 C-5.80549297 32.161264 -2.91332494 31.67345935 1.07421875 29.6796875 C4.54106965 26.685589 7.29660076 23.99661601 8.20703125 19.3515625 C8.49885285 14.25441197 7.21512241 11.230997 3.82421875 7.3046875 C-0.10209075 3.91378384 -3.12550572 2.6300534 -8.22265625 2.921875 C-12.86770976 3.83230549 -15.55668275 6.5878366 -18.55078125 10.0546875 Z " fill="#EA9B10" transform="translate(38.17578125,14.6953125)"/>
<path d="M0 0 C5.50954973 2.35522736 8.77755622 6.2870822 11.796875 11.375 C14.0279575 18.0682475 13.16275119 24.09400333 10.06640625 30.36328125 C7.2050193 34.89747904 3.02229104 38.06864599 -2.203125 39.375 C-9.06485767 40.14798548 -14.52832041 39.46995921 -20.203125 35.375 C-24.5602276 31.42810808 -26.90426703 27.01852378 -27.38671875 21.13671875 C-27.50447022 16.90459256 -27.33565049 14.11538201 -25.203125 10.375 C-24.543125 11.035 -23.883125 11.695 -23.203125 12.375 C-23.533125 13.035 -23.863125 13.695 -24.203125 14.375 C-25.02103914 20.66125436 -24.49671911 25.4805885 -20.75 30.6796875 C-17.13501735 34.64156242 -13.68102058 36.21078938 -8.265625 36.8125 C-2.59938877 36.48242799 2.17491432 35.03964385 6.171875 30.9375 C9.76177876 25.27649791 10.6238259 21.08363919 9.796875 14.375 C8.01989536 9.03396459 4.65906704 6.06472325 -0.203125 3.375 C-5.59566702 1.57748599 -10.52820391 1.66977007 -15.765625 3.875 C-16.57 4.37 -17.374375 4.865 -18.203125 5.375 C-17.873125 6.365 -17.543125 7.355 -17.203125 8.375 C-19.183125 8.375 -21.163125 8.375 -23.203125 8.375 C-23.203125 6.395 -23.203125 4.415 -23.203125 2.375 C-22.213125 2.705 -21.223125 3.035 -20.203125 3.375 C-18.4419887 2.60791803 -18.4419887 2.60791803 -16.640625 1.4375 C-11.16653276 -1.4451871 -5.93944362 -1.68494855 0 0 Z " fill="#DBEAE4" transform="translate(39.203125,12.625)"/>
<path d="M0 0 C1.67542976 0.28604898 3.34385343 0.61781233 5 1 C5.33 2.65 5.66 4.3 6 6 C4.68 6.99 3.36 7.98 2 9 C3.32 9.33 4.64 9.66 6 10 C6 10.66 6 11.32 6 12 C3.36 12 0.72 12 -2 12 C-1.60401298 9.12909413 -1.2676157 8.21084873 1.0625 6.375 C1.701875 5.92125 2.34125 5.4675 3 5 C3 4.34 3 3.68 3 3 C2.34 3 1.68 3 1 3 C0.67 3.66 0.34 4.32 0 5 C-0.66 5 -1.32 5 -2 5 C-1.125 1.125 -1.125 1.125 0 0 Z " fill="#F4E9D3" transform="translate(25,26)"/>
<path d="M0 0 C0.66 0 1.32 0 2 0 C1.34 2.31 0.68 4.62 0 7 C0.99 7 1.98 7 3 7 C3 5.68 3 4.36 3 3 C3.66 3 4.32 3 5 3 C5 5.97 5 8.94 5 12 C4.34 12 3.68 12 3 12 C3 11.01 3 10.02 3 9 C1.02 9 -0.96 9 -3 9 C-2.44271087 5.65626525 -1.64826111 2.96687001 0 0 Z " fill="#F4EDDE" transform="translate(36,26)"/>
<path d="M0 0 C0.99 0.33 1.98 0.66 3 1 C3.99 0.67 4.98 0.34 6 0 C6 2 6 4 6 6 C4.02 6 2.04 6 0 6 C0 4.02 0 2.04 0 0 Z " fill="#E7EEEA" transform="translate(16,15)"/>
<path d="M0 0 C2.64 0.33 5.28 0.66 8 1 C8 1.66 8 2.32 8 3 C5.36 3 2.72 3 0 3 C0 2.01 0 1.02 0 0 Z " fill="#F3EEE4" transform="translate(23,35)"/>
</svg>
