<?xml version="1.0" standalone="no"?>
<!DOCTYPE svg PUBLIC "-//W3C//DTD SVG 20010904//EN"
 "http://www.w3.org/TR/2001/REC-SVG-20010904/DTD/svg10.dtd">
<svg version="1.0" xmlns="http://www.w3.org/2000/svg"
 width="800.000000pt" height="800.000000pt" viewBox="0 0 800.000000 800.000000"
 preserveAspectRatio="xMidYMid meet">

<g transform="translate(0.000000,800.000000) scale(0.100000,-0.100000)"
fill="#000000" stroke="none">
<path d="M4 6613 c2 -764 5 -1398 6 -1410 1 -13 6 -23 10 -23 5 0 10 10 12 23
2 15 9 21 20 19 10 -2 18 1 18 6 0 5 11 7 25 4 29 -5 44 20 26 42 -10 11 -8
16 8 21 12 3 25 4 29 1 17 -11 185 27 204 46 10 10 30 18 44 18 14 0 31 6 39
13 7 6 25 21 39 31 14 10 26 27 26 37 0 16 7 18 45 17 34 -2 49 3 64 19 18 19
28 20 108 16 48 -3 106 -9 127 -13 22 -5 47 -5 56 0 26 14 207 30 325 29 82
-1 122 4 155 16 25 10 91 21 147 25 55 4 105 10 111 14 5 3 37 6 70 7 34 1 62
5 62 9 0 13 54 32 58 21 3 -10 30 -8 72 5 12 4 12 6 0 14 -10 6 -1 12 33 21
27 6 52 20 58 30 7 14 6 17 -4 13 -16 -6 -49 59 -41 80 3 8 -2 28 -10 44 -12
22 -13 31 -4 34 7 3 5 7 -5 11 -12 5 -17 1 -17 -13 0 -30 -19 -24 -38 12 -9
17 -27 42 -40 56 -20 21 -22 50 -3 38 4 -3 14 7 22 21 12 23 46 59 94 101 8 6
32 12 54 12 34 0 38 2 34 20 -3 13 0 20 8 20 8 0 25 9 39 20 14 11 35 20 48
20 13 0 22 6 22 15 0 11 11 15 38 15 21 0 55 11 80 25 32 18 42 20 42 9 0 -21
15 -18 89 20 140 71 159 78 199 74 32 -3 38 0 35 13 -4 14 6 18 59 23 114 10
126 12 152 30 23 14 26 14 26 1 0 -19 17 -19 50 0 14 8 44 14 68 15 23 0 42 4
42 8 0 8 233 37 393 48 48 3 87 10 87 15 0 5 36 9 80 9 47 0 80 4 80 10 0 6
87 10 240 10 153 0 240 -4 240 -10 0 -5 18 -10 40 -10 29 0 40 4 40 15 0 13
22 15 138 14 76 0 128 -4 117 -8 -14 -6 -2 -10 42 -15 34 -4 65 -11 68 -16 4
-6 30 -10 59 -10 28 0 57 -5 62 -10 14 -14 92 -23 184 -21 49 0 84 -4 100 -14
25 -14 25 -14 -15 -16 l-40 -1 40 -8 c22 -4 41 -4 43 1 5 12 42 12 42 0 0 -5
10 -13 23 -17 12 -3 30 -13 40 -22 15 -14 19 -13 35 1 24 22 102 23 102 2 0
-11 11 -15 40 -15 22 0 40 -4 40 -10 0 -5 9 -10 20 -10 11 0 20 -4 20 -9 0 -5
10 -12 23 -16 12 -3 47 -16 77 -29 30 -13 89 -34 130 -47 41 -12 87 -32 102
-44 14 -12 45 -25 67 -29 25 -4 41 -12 41 -20 0 -8 16 -16 40 -20 l40 -6 0
-50 c0 -46 -2 -50 -24 -50 -14 0 -28 -4 -31 -10 -3 -5 -15 -10 -27 -10 -11 0
-45 -13 -75 -30 -30 -16 -66 -30 -80 -30 -15 0 -34 -7 -44 -16 -10 -9 -33 -19
-51 -23 -38 -8 -75 -68 -69 -113 1 -10 -2 -18 -7 -18 -5 0 -17 -12 -27 -26
-15 -23 -15 -27 -1 -49 9 -14 16 -29 16 -35 0 -22 29 -40 64 -40 20 0 36 -4
36 -10 0 -15 16 -12 35 6 8 9 22 13 30 10 8 -3 15 0 15 6 0 6 10 -2 22 -18 31
-40 38 -44 81 -44 24 0 40 -5 43 -15 4 -8 11 -15 18 -15 12 0 72 -71 69 -81
-6 -17 90 -27 249 -27 159 1 180 -1 208 -19 29 -18 37 -19 118 -7 48 6 107 16
132 22 25 5 75 9 112 8 38 0 69 3 71 8 3 10 187 15 187 5 0 -4 23 -15 51 -24
27 -9 62 -28 76 -41 29 -26 27 -29 -11 -14 -17 6 -36 6 -58 -2 -24 -9 -33 -8
-36 0 -2 8 -8 7 -19 -4 -9 -8 -21 -13 -28 -10 -7 2 -30 -2 -51 -9 -37 -12 -37
-14 -14 -19 14 -3 43 -7 65 -8 l40 -3 -57 -33 c-31 -18 -62 -40 -68 -47 -16
-19 -139 -20 -256 -3 l-82 12 -109 -38 c-59 -20 -117 -38 -128 -39 -11 -2 -19
-8 -18 -14 2 -7 -14 -15 -35 -18 -20 -4 -47 -11 -60 -16 -13 -5 -28 -7 -33 -4
-5 3 -6 -1 -3 -9 5 -13 -2 -16 -35 -16 -23 0 -41 -4 -41 -10 0 -17 5 -25 13
-22 5 1 6 -2 2 -8 -3 -5 -2 -10 4 -10 5 0 12 4 16 9 3 6 14 9 25 8 10 -1 16
-5 14 -9 -3 -5 -10 -6 -15 -3 -16 11 -30 -5 -16 -20 10 -11 15 -11 28 1 14 12
19 12 39 -6 13 -11 35 -20 49 -20 14 -1 36 -6 49 -14 28 -15 125 -5 222 24
114 34 385 46 417 18 19 -16 48 -16 118 1 22 5 66 12 98 16 31 3 55 10 52 15
-3 5 0 12 6 15 5 4 8 13 5 20 -3 8 7 15 26 19 37 7 50 -1 25 -15 -9 -6 -15
-15 -12 -20 4 -5 11 -6 17 -3 6 4 57 7 114 8 76 1 100 -2 93 -10 -7 -8 5 -10
43 -7 125 10 223 8 220 -4 -1 -7 4 -13 11 -13 14 0 47 -31 47 -43 0 -4 -15 -7
-34 -7 -18 0 -39 -7 -46 -15 -11 -13 -8 -16 19 -21 31 -7 31 -7 10 -22 -16
-11 -18 -16 -8 -23 7 -4 19 -4 25 2 7 6 16 4 24 -6 10 -12 10 -15 -4 -15 -9 0
-16 -7 -16 -15 0 -8 7 -15 15 -15 9 0 21 -12 27 -27 7 -16 18 -35 25 -43 7 -9
13 -30 15 -48 2 -23 7 -32 20 -32 26 0 22 -20 -4 -21 -22 -1 -22 -1 2 -9 l25
-7 -28 -12 c-16 -6 -34 -11 -42 -11 -16 0 -30 -18 -21 -27 3 -3 35 -5 71 -4
36 1 65 -2 65 -7 0 -5 9 -12 21 -15 12 -3 18 -10 14 -16 -3 -6 0 -11 8 -11 7
0 15 6 17 13 1 6 4 780 7 1720 l4 1707 -4001 0 -4000 0 4 -1387z m5356 -198
c0 -8 -7 -15 -15 -15 -9 0 -12 6 -9 15 4 8 10 15 15 15 5 0 9 -7 9 -15z m104
-44 c3 -5 -1 -11 -9 -15 -9 -3 -15 0 -15 9 0 16 16 20 24 6z m426 -220 c0 -17
-18 -21 -24 -6 -3 9 0 15 9 15 8 0 15 -4 15 -9z"/>
<path d="M3898 6473 c34 -2 90 -2 125 0 34 2 6 3 -63 3 -69 0 -97 -1 -62 -3z"/>
<path d="M2330 5698 c1 -17 29 -66 30 -51 0 6 10 9 23 6 22 -4 22 -4 -2 10
-22 13 -22 14 -5 22 18 7 18 7 -1 15 -30 13 -45 12 -45 -2z"/>
<path d="M2300 5660 l-25 -8 28 -1 c15 -1 27 4 27 9 0 6 -1 10 -2 9 -2 -1 -14
-5 -28 -9z"/>
<path d="M2348 5555 c-4 -27 -8 -359 -8 -736 -1 -378 -3 -689 -6 -691 -2 -3
-91 10 -197 28 -105 19 -198 34 -204 34 -8 0 -13 14 -13 34 0 39 13 34 -159
62 -121 19 -226 15 -244 -10 -11 -14 -67 -6 -572 79 -308 51 -640 108 -738
124 -98 17 -184 31 -192 31 -13 0 -15 -195 -15 -1581 0 -1500 1 -1580 18
-1575 9 3 233 51 497 106 264 56 575 122 690 146 353 75 410 83 410 54 0 -10
-24 -19 -80 -31 -44 -9 -147 -30 -230 -47 -311 -65 -541 -113 -895 -186 -201
-42 -375 -78 -387 -81 l-23 -5 0 -655 0 -655 2081 0 2081 0 141 103 c78 57
275 199 437 317 162 118 345 251 405 296 128 94 433 316 865 627 168 121 328
236 355 257 28 21 133 97 235 171 254 182 837 615 880 652 19 17 27 28 18 24
-24 -9 -23 10 1 23 13 6 21 6 23 0 4 -13 55 22 173 115 l90 72 -3 106 c-4 93
-2 108 13 113 27 11 35 -8 36 -94 1 -45 4 -82 8 -82 3 0 40 26 81 58 l75 58
-1 704 c0 501 -3 712 -11 730 -11 23 -12 21 -14 -25 -1 -31 -4 -40 -6 -22 -6
38 -23 24 -24 -21 l-2 -37 -7 35 c-7 31 -7 32 -9 8 -1 -20 -6 -28 -20 -28 -15
0 -18 -5 -14 -21 7 -24 -29 -58 -58 -59 -21 0 -20 -33 1 -41 10 -4 3 -9 -20
-14 -19 -4 -40 -11 -46 -16 -12 -10 -313 5 -414 21 -74 11 -168 13 -222 4 -37
-6 -38 -8 -38 -49 l0 -42 93 -7 c50 -3 135 -6 187 -6 57 1 96 -3 98 -10 2 -5
18 -10 37 -10 45 0 61 -21 33 -44 -15 -13 -17 -20 -8 -26 7 -4 8 -10 3 -13
-12 -7 -165 -28 -170 -23 -3 2 -17 0 -33 -4 -22 -6 -30 -5 -35 8 -4 11 -8 13
-13 5 -4 -6 -36 -17 -72 -25 -58 -13 -61 -15 -33 -20 19 -2 30 -1 26 5 -4 6 3
8 18 4 13 -4 32 -7 42 -7 15 0 17 -11 17 -89 l0 -89 -90 -13 c-69 -9 -90 -15
-90 -27 0 -8 -3 -12 -7 -9 -4 4 -10 141 -14 304 -6 264 -9 297 -24 306 -33 18
-543 470 -865 767 -130 119 -150 137 -285 255 -44 39 -86 76 -93 83 -8 7 -40
12 -76 12 -86 0 -299 -29 -307 -42 -5 -7 -14 -5 -30 5 -18 14 -39 15 -109 10
l-87 -6 -6 169 c-5 145 -8 170 -23 181 -20 15 -43 16 -62 5 -10 -7 -13 -110
-13 -498 1 -335 -3 -484 -10 -472 -12 21 -26 187 -35 411 l-6 169 -47 -7 c-25
-4 -89 -11 -141 -15 -52 -4 -135 -15 -185 -24 -49 -8 -151 -23 -225 -31 -305
-35 -446 -60 -564 -100 -79 -27 -110 -27 -100 -2 5 15 53 38 114 56 141 41
549 105 835 131 177 15 194 19 64 14 -136 -5 -357 -26 -559 -55 -489 -69 -645
-124 -711 -251 -11 -21 -15 -38 -10 -38 5 0 13 5 16 10 12 19 25 10 25 -19 0
-30 -14 -41 -55 -41 -13 0 -27 -5 -31 -11 -5 -8 12 -10 57 -6 l64 6 -60 -13
c-76 -17 -94 -24 -128 -53 -16 -13 -33 -23 -39 -23 -5 0 -25 -17 -43 -37 -33
-36 -33 -38 -12 -41 12 -1 65 4 118 11 81 11 98 11 105 0 7 -11 27 -9 109 12
111 27 151 31 157 13 3 -8 27 -7 94 6 58 12 158 20 289 23 211 6 468 -4 444
-17 -8 -4 -169 -10 -359 -13 -338 -6 -611 -24 -719 -47 -30 -7 -76 -10 -102
-8 -27 3 -46 1 -43 -3 2 -4 -4 -8 -13 -8 -46 0 -251 -20 -275 -26 l-28 -7 -2
373 c-2 284 -6 373 -15 376 -10 4 -12 -31 -9 -149 2 -97 0 -140 -5 -118 -5 19
-8 91 -8 160 2 122 1 125 -22 137 -13 7 -24 11 -26 10 -7 -7 -3 -802 4 -801 4
1 23 4 41 8 55 10 27 -10 -32 -23 -69 -15 -77 -27 -26 -35 38 -6 57 -26 24
-26 -8 0 -13 -4 -10 -9 4 -5 -7 -15 -24 -23 -33 -14 -39 -28 -12 -29 9 0 -10
-7 -43 -15 -64 -16 -95 -34 -56 -34 12 0 39 -16 59 -36 23 -22 30 -34 18 -30
-15 5 -17 2 -13 -13 3 -11 1 -21 -4 -23 -10 -3 -18 -258 -8 -258 4 0 10 21 14
48 14 99 27 142 41 142 11 0 14 -28 14 -155 l0 -155 -27 -11 c-26 -10 -27 -12
-8 -19 15 -5 7 -9 -33 -15 -28 -4 -49 -11 -46 -16 3 -5 -7 -9 -21 -9 -20 0
-25 4 -21 18 6 21 32 163 41 217 5 35 4 38 -8 23 -7 -9 -21 -62 -31 -118 -21
-117 -32 -131 -14 -17 6 42 10 79 7 81 -2 3 -47 12 -99 20 -150 25 -140 21
-140 67 0 36 -3 41 -30 50 -34 12 -37 25 -15 56 10 14 29 23 53 26 l37 4 -36
1 c-39 2 -79 -26 -79 -56 0 -9 -9 -22 -20 -27 -19 -9 -21 -22 -25 -135 -3 -69
-9 -138 -13 -155 -9 -30 -9 -30 -17 15 -5 25 -8 80 -8 122 l2 76 -40 7 -39 7
-2 741 c-2 408 -6 720 -10 692z m2829 -337 c-1 -57 -3 -11 -3 102 0 113 2 159
3 103 2 -57 2 -149 0 -205z m443 8 c0 -8 -10 -16 -22 -18 -13 -2 -22 -9 -20
-16 1 -6 -5 -12 -13 -12 -8 0 -15 7 -15 16 0 11 -6 15 -20 11 -11 -3 -23 -1
-26 4 -3 5 7 10 23 11 46 2 51 3 59 11 12 12 34 8 34 -7z m42 -1 c0 -5 -5 -11
-11 -13 -6 -2 -11 4 -11 13 0 9 5 15 11 13 6 -2 11 -8 11 -13z m-169 -84 c27
-25 27 -25 27 -3 0 15 6 22 19 22 10 0 45 3 78 6 l59 6 3 -51 c1 -30 -2 -51
-9 -51 -5 0 -10 -6 -10 -14 0 -22 -14 -26 -49 -16 -22 6 -31 5 -31 -3 0 -7 -9
7 -20 30 -12 27 -24 41 -32 38 -7 -3 -34 16 -58 42 -44 46 -32 43 23 -6z m387
22 c0 -13 -3 -13 -15 -3 -8 7 -15 16 -15 21 0 5 7 6 15 3 8 -4 15 -13 15 -21z
m-70 -18 c7 -8 8 -15 3 -15 -6 0 -7 -19 -1 -52 4 -29 9 -90 10 -135 2 -89 3
-92 33 -109 25 -14 45 -7 45 14 0 14 2 14 9 3 5 -8 8 -23 6 -33 -2 -10 0 -16
4 -14 11 7 44 -32 64 -75 9 -19 26 -44 38 -55 24 -20 24 -19 -5 48 l-16 37 38
-15 c20 -9 43 -23 50 -32 6 -9 12 -12 12 -8 0 5 11 1 25 -8 37 -25 55 -21 55
13 0 16 -7 34 -15 41 -17 14 -21 35 -5 25 6 -3 10 1 10 9 0 9 6 16 13 17 6 0
2 5 -11 11 -14 7 -21 17 -17 26 5 13 3 13 -12 1 -9 -8 -14 -9 -10 -2 5 8 0 11
-13 10 -20 -1 -24 -13 -20 -51 3 -33 -19 -7 -26 30 -4 20 -18 56 -31 80 -26
46 -37 57 -26 27 5 -15 3 -15 -11 2 -15 17 -17 18 -12 2 3 -10 2 -16 -3 -13
-5 3 -11 -3 -14 -14 -3 -13 1 -21 12 -25 13 -4 16 -13 13 -34 -7 -46 -30 -47
-43 -1 -10 33 -9 43 5 65 9 14 14 30 11 35 -3 5 4 7 15 5 22 -4 28 10 8 18 -7
2 -11 7 -8 10 3 3 26 -12 50 -33 25 -22 40 -40 35 -40 -6 0 -17 6 -25 13 -8 6
-6 2 5 -11 13 -16 21 -19 26 -10 5 8 28 -6 73 -46 36 -31 108 -92 159 -134 52
-42 147 -122 212 -177 64 -55 134 -113 155 -130 21 -16 70 -58 109 -92 39 -35
75 -63 79 -63 4 1 -11 15 -33 33 -35 29 -245 211 -351 305 -23 21 -62 54 -88
76 -25 21 -43 43 -39 49 4 6 1 7 -6 3 -15 -10 -53 23 -47 40 3 8 0 11 -8 8
-17 -7 -30 12 -15 21 13 9 61 -34 52 -48 -3 -6 -1 -7 5 -3 6 3 20 -6 31 -20
12 -15 21 -23 21 -18 0 4 19 -10 43 -33 37 -36 270 -239 535 -467 50 -44 92
-84 92 -89 0 -5 -8 -3 -17 4 -17 13 -17 13 0 -7 15 -19 17 -47 16 -290 -1
-148 -5 -251 -9 -229 -4 22 -8 32 -9 23 -1 -20 -21 -25 -22 -5 0 10 -2 10 -6
0 -2 -8 -22 -13 -44 -13 -24 0 -38 -4 -34 -10 4 -6 -7 -10 -24 -10 -17 0 -31
5 -31 11 0 5 -5 7 -10 4 -6 -4 -8 -11 -5 -16 4 -5 -8 -9 -25 -9 -17 0 -29 4
-25 9 3 5 1 12 -5 16 -5 3 -10 -1 -10 -9 0 -12 -11 -16 -48 -16 -26 0 -53 5
-60 12 -9 9 -15 9 -24 0 -7 -7 -25 -12 -40 -12 -15 0 -28 -4 -28 -9 0 -5 -9
-11 -20 -14 -17 -4 -20 0 -20 26 0 22 -3 28 -11 20 -6 -6 -12 -19 -13 -29 -2
-13 -11 -19 -27 -19 -13 0 -23 5 -22 12 2 9 -5 9 -27 1 -17 -5 -37 -8 -45 -4
-8 3 -21 -4 -28 -15 -10 -13 -27 -20 -53 -21 -21 -1 -45 -7 -52 -15 -18 -18
-52 -17 -52 2 0 10 -10 15 -30 15 -27 0 -30 -4 -36 -40 -4 -22 -10 -40 -14
-40 -4 0 -5 12 -2 26 4 21 1 25 -14 22 -24 -4 -31 -46 -10 -54 22 -8 130 -145
109 -137 -29 10 -43 24 -36 36 3 5 1 7 -4 4 -6 -4 -30 18 -53 48 -24 31 -52
57 -64 59 -88 18 -152 11 -186 -19 -17 -15 -17 -18 2 -67 10 -28 17 -52 14
-55 -2 -2 -10 15 -18 38 -8 24 -19 44 -24 46 -14 5 -35 -65 -44 -142 -6 -46
-8 -23 -9 95 -1 85 -6 412 -11 725 -6 314 -10 686 -11 827 0 233 -2 257 -17
261 -13 4 -12 5 4 6 12 0 27 -6 34 -14z m-442 -32 c-37 -39 -60 -78 -83 -142
-8 -20 -14 -29 -14 -21 -2 28 66 156 94 178 42 33 43 26 3 -15z m412 20 c0 -5
-5 -15 -10 -23 -7 -12 -9 -10 -7 8 1 19 17 33 17 15z m136 -79 c10 -9 12 -12
4 -8 -25 13 -80 58 -80 67 0 4 13 -4 28 -18 16 -14 37 -32 48 -41z m-46 11
c11 -13 10 -14 -5 -9 -14 6 -16 4 -10 -6 5 -8 4 -11 -3 -6 -6 4 -9 13 -5 21 7
19 8 19 23 0z m26 -33 c-3 -5 4 -18 14 -30 24 -25 24 -29 5 -29 -8 0 -15 8
-15 18 0 9 -8 20 -17 23 -15 6 -15 8 -3 16 19 12 23 12 16 2z m79 -30 c-6 -6
-35 18 -35 29 0 5 9 1 20 -8 11 -9 17 -19 15 -21z m-30 -2 c3 -6 -1 -7 -9 -4
-18 7 -21 14 -7 14 6 0 13 -4 16 -10z m180 -80 c10 -11 16 -20 13 -20 -3 0
-13 9 -23 20 -10 11 -16 20 -13 20 3 0 13 -9 23 -20z m-115 -20 c0 -5 -4 -10
-10 -10 -5 0 -10 5 -10 10 0 6 5 10 10 10 6 0 10 -4 10 -10z m-733 -27 c26
-17 38 -43 18 -43 -7 0 -16 9 -20 19 -3 11 -19 22 -35 26 -17 4 -32 11 -36 16
-8 13 45 0 73 -18z m919 -9 c1 -9 -1 -13 -4 -9 -4 4 -7 10 -7 13 0 4 -4 14 -9
22 -7 12 -6 13 4 3 8 -7 15 -20 16 -29z m-2249 0 c-3 -3 -12 -4 -19 -1 -8 3
-5 6 6 6 11 1 17 -2 13 -5z m2313 -58 c-7 -7 -17 -2 -33 14 -12 13 -14 18 -4
10 9 -7 20 -10 23 -7 3 3 -3 12 -15 19 -12 7 -21 17 -21 22 0 5 14 -3 30 -19
20 -20 27 -32 20 -39z m-210 18 c0 -8 -5 -12 -10 -9 -6 4 -8 11 -5 16 9 14 15
11 15 -7z m-545 -14 c16 -17 16 -20 3 -15 -9 4 -19 13 -22 21 -7 19 -2 18 19
-6z m-135 -14 c-38 -13 -54 -11 -30 4 8 6 26 10 40 9 22 0 20 -2 -10 -13z
m-1490 -15 c0 -21 -19 -31 -61 -31 -19 0 -29 5 -29 15 0 18 28 34 63 35 20 0
27 -5 27 -19z m2191 -8 c13 -17 13 -17 -6 -3 -11 8 -22 16 -24 17 -2 2 0 3 6
3 6 0 17 -8 24 -17z m-2454 -29 c-4 -4 -27 -10 -52 -14 -32 -5 -45 -3 -45 5 0
30 65 50 89 28 8 -7 12 -16 8 -19z m2513 0 c0 -2 -9 0 -20 6 -11 6 -20 13 -20
16 0 2 9 0 20 -6 11 -6 20 -13 20 -16z m-1637 -87 c16 -11 16 -15 3 -32 -10
-14 -26 -20 -54 -20 -23 0 -44 4 -49 8 -11 12 11 41 38 48 37 11 44 10 62 -4z
m-633 -23 c0 -11 -23 -49 -34 -56 -6 -4 -23 -8 -38 -8 -35 0 -38 32 -6 54 21
15 78 22 78 10z m-220 -23 c0 -4 -9 -20 -21 -35 -15 -19 -30 -26 -54 -26 -33
0 -34 1 -24 27 6 15 16 31 22 35 17 11 77 10 77 -1z m-234 -55 c-12 -20 -25
-26 -51 -26 -19 0 -35 3 -35 8 0 20 33 51 58 54 38 5 48 -7 28 -36z m1668
-148 c18 -26 20 -38 7 -38 -5 0 -13 9 -16 21 -4 11 -16 24 -28 29 l-22 9 22 0
c12 1 29 -9 37 -21z m-16 -258 c0 -58 -4 -118 -8 -135 -4 -17 -8 40 -8 135 0
95 4 152 8 135 4 -16 8 -77 8 -135z m-1890 23 c7 -10 12 -46 12 -83 l0 -67
-32 5 -33 5 28 10 c24 8 28 14 25 41 -3 28 -7 31 -40 34 -37 3 -38 4 -38 44 0
40 0 40 33 34 17 -3 38 -14 45 -23z m-2794 -12 c12 -19 -7 -41 -34 -41 -32 0
-45 13 -36 35 6 16 61 21 70 6z m802 -103 c-3 -13 -6 -29 -6 -35 0 -19 -48
-16 -59 4 -15 27 5 53 41 53 27 0 30 -3 24 -22z m1046 -142 c-3 -27 -8 -33
-25 -32 -53 3 -52 66 1 66 26 0 28 -3 24 -34z m553 -36 c11 -17 -5 -50 -25
-50 -20 0 -32 23 -24 45 7 17 40 20 49 5z m220 -59 c10 -17 -12 -21 -25 -6
-10 12 -10 15 3 15 9 0 18 -4 22 -9z m-123 -28 c19 -17 42 -19 113 -8 24 4 20
0 -19 -18 l-49 -23 41 -18 c22 -10 43 -25 46 -33 5 -12 16 -14 49 -8 82 14
231 13 267 -1 l35 -13 -40 1 c-56 0 -182 -20 -208 -34 -12 -6 -48 -11 -79 -10
-33 1 -82 -7 -119 -18 -56 -18 -79 -20 -207 -14 l-144 7 58 24 c32 13 63 28
69 34 5 5 -8 3 -30 -6 -102 -42 -141 -66 -164 -100 -18 -27 -27 -33 -37 -24
-10 8 -15 1 -24 -31 -6 -23 -12 -40 -13 -39 -1 2 -11 15 -22 28 -19 23 -19 24
-1 17 16 -5 17 -4 6 9 -19 23 -25 19 -59 -32 -33 -49 -33 -71 -3 -105 12 -15
14 -37 9 -123 -6 -110 -6 -110 38 -105 16 2 17 0 6 -14 -7 -9 -17 -14 -21 -11
-4 2 -5 -8 -3 -23 3 -27 3 -27 -7 -3 -6 13 -13 21 -16 18 -3 -3 -10 -68 -14
-144 -6 -121 -7 -104 -7 129 1 265 0 268 -22 292 -25 26 -23 26 -236 5 -122
-12 -167 -23 -190 -49 -15 -17 -19 -45 -23 -210 -3 -104 -8 -190 -12 -190 -15
0 -20 49 -20 214 0 154 -1 167 -16 155 -14 -11 -18 -11 -29 4 -12 16 -13 16
-18 -3 -4 -15 -10 -18 -24 -13 -17 7 -17 8 0 11 20 4 23 22 3 22 -7 0 -35 12
-60 26 -26 15 -68 33 -94 40 -47 14 -46 14 38 8 91 -6 141 -22 177 -56 l23
-21 0 34 c1 49 32 112 71 142 62 46 217 117 372 169 154 52 160 53 302 46 49
-3 50 -2 48 24 -1 25 2 28 55 38 31 6 71 16 87 20 41 12 93 5 117 -17z m4469
-55 c2 -31 2 -31 6 -5 4 24 9 27 41 27 35 0 35 0 16 -18 -11 -11 -26 -22 -34
-25 -13 -5 50 -12 73 -8 16 2 0 -24 -22 -36 -30 -16 -58 -17 -64 0 -3 6 -6 -8
-7 -33 -1 -35 -3 -40 -10 -25 -6 14 -9 15 -10 5 0 -8 -7 -24 -15 -34 -14 -18
-15 -10 -15 82 0 95 1 102 20 102 16 0 20 -7 21 -32z m-3504 -4 c-3 -3 -12 -4
-19 -1 -8 3 -5 6 6 6 11 1 17 -2 13 -5z m3630 -46 c-3 -8 -6 -5 -6 6 -1 11 2
17 5 13 3 -3 4 -12 1 -19z m33 2 c0 -5 -4 -10 -10 -10 -5 0 -10 5 -10 10 0 6
5 10 10 10 6 0 10 -4 10 -10z m50 6 c0 -9 -30 -14 -35 -6 -4 6 3 10 14 10 12
0 21 -2 21 -4z m-4130 -15 c8 -6 19 -7 25 -3 17 11 36 11 33 0 -5 -13 -74 -39
-179 -67 -46 -13 -103 -29 -127 -37 -23 -8 -66 -13 -95 -13 l-52 2 40 7 c121
24 284 80 296 101 10 20 35 24 59 10z m134 0 c3 -5 -5 -11 -19 -13 -20 -4 -23
-3 -14 8 13 16 25 18 33 5z m-3441 -18 c-7 -2 -19 -2 -25 0 -7 3 -2 5 12 5 14
0 19 -2 13 -5z m3493 -24 c-33 -11 -61 -17 -64 -15 -5 6 87 35 108 34 8 0 -12
-9 -44 -19z m-3528 5 c25 -7 30 -41 7 -50 -26 -10 -65 5 -65 25 0 31 14 36 58
25z m485 -11 c-7 -2 -19 -2 -25 0 -7 3 -2 5 12 5 14 0 19 -2 13 -5z m-19 -22
c4 -5 2 -21 -4 -35 -7 -18 -17 -26 -34 -26 -28 0 -49 29 -40 54 7 17 69 23 78
7z m400 -17 c20 -8 21 -38 2 -54 -21 -16 -60 -9 -64 13 -8 41 18 58 62 41z
m376 -4 c0 -5 -4 -10 -10 -10 -5 0 -10 5 -10 10 0 6 5 10 10 10 6 0 10 -4 10
-10z m-15 -21 c4 -5 4 -21 1 -35 -9 -33 -52 -34 -58 -1 -2 12 -3 28 0 35 5 15
48 16 57 1z m340 -19 c11 -18 -6 -50 -26 -50 -22 0 -34 22 -25 45 6 17 42 20
51 5z m-1125 -41 c48 -22 86 -52 102 -84 8 -14 1 -11 -22 10 -18 17 -30 24
-26 18 9 -17 6 -16 -35 4 -19 9 -61 19 -94 21 -33 3 -63 10 -67 16 -4 6 -11
11 -15 12 -4 0 -27 4 -50 8 -76 14 -46 23 60 19 72 -3 115 -10 147 -24z m5927
25 c-3 -3 -12 -4 -19 -1 -8 3 -5 6 6 6 11 1 17 -2 13 -5z m-3444 -45 c42 -11
49 -34 12 -43 -21 -5 -24 -10 -15 -25 6 -12 7 -37 1 -68 -5 -26 -12 -133 -16
-238 -4 -104 -9 -192 -12 -195 -3 -3 -2 99 2 225 l8 230 -24 12 c-33 17 -207
33 -363 33 l-132 0 -12 32 -11 31 157 -6 c86 -4 189 -9 227 -13 51 -4 66 -3
55 5 -12 9 -11 11 9 11 33 0 19 11 -26 21 -26 6 -16 6 32 3 39 -3 87 -10 108
-15z m-613 -45 c0 -26 -17 -33 -26 -9 -8 20 3 48 16 40 5 -3 10 -17 10 -31z
m-40 -14 c0 -5 -4 -10 -10 -10 -5 0 -10 5 -10 10 0 6 5 10 10 10 6 0 10 -4 10
-10z m710 0 c0 -5 -4 -10 -10 -10 -5 0 -10 5 -10 10 0 6 5 10 10 10 6 0 10 -4
10 -10z m3208 -96 c-6 -5 -34 23 -67 66 -33 44 -33 44 18 -9 28 -30 50 -55 49
-57z m1239 24 c-2 -13 -4 -3 -4 22 0 25 2 35 4 23 2 -13 2 -33 0 -45z m-5097
38 c0 -2 -8 -10 -17 -17 -16 -13 -17 -12 -4 4 13 16 21 21 21 13z m3640 -23
c-52 -5 -77 -24 -83 -62 -3 -21 -4 -19 -6 10 -1 44 22 58 89 57 l45 -1 -45 -4z
m99 -51 c-5 -2 -7 -8 -3 -13 3 -5 0 -9 -5 -9 -6 0 -11 11 -11 25 0 14 -7 28
-15 31 -8 4 -15 11 -15 18 0 6 13 -2 29 -19 15 -16 24 -32 20 -33z m-5585 39
c4 -5 -3 -7 -14 -4 -23 6 -26 13 -6 13 8 0 17 -4 20 -9z m106 -7 c0 -2 -17 -4
-37 -3 -33 1 -35 2 -13 8 23 7 50 4 50 -5z m5434 -33 c3 -5 -1 -11 -9 -14 -9
-4 -12 -1 -8 9 6 16 10 17 17 5z m1016 -1 c0 -5 -7 -10 -15 -10 -8 0 -15 5
-15 10 0 6 7 10 15 10 8 0 15 -4 15 -10z m-753 -6 c-3 -3 -12 -4 -19 -1 -8 3
-5 6 6 6 11 1 17 -2 13 -5z m818 -14 c3 -5 -1 -10 -9 -10 -9 0 -16 5 -16 10 0
6 4 10 9 10 6 0 13 -4 16 -10z m310 0 c3 -5 1 -10 -4 -10 -6 0 -11 5 -11 10 0
6 2 10 4 10 3 0 8 -4 11 -10z m-1505 -163 c-1 -14 -79 132 -79 148 -1 6 17
-23 39 -63 22 -40 40 -79 40 -85z m327 147 c-3 -3 -12 -4 -19 -1 -8 3 -5 6 6
6 11 1 17 -2 13 -5z m-329 -29 c-3 -3 -9 2 -12 12 -6 14 -5 15 5 6 7 -7 10
-15 7 -18z m126 -11 c3 -8 2 -12 -4 -9 -6 3 -10 10 -10 16 0 14 7 11 14 -7z
m-84 -58 c5 -14 8 -26 6 -26 -6 0 -46 66 -46 74 0 14 30 -23 40 -48z m-5273
18 l28 -26 -25 6 c-14 3 -52 6 -85 7 -51 0 -56 2 -35 11 14 5 32 14 40 18 26
15 48 11 77 -16z m5450 -20 c-3 -3 -12 -4 -19 -1 -8 3 -5 6 6 6 11 1 17 -2 13
-5z m928 -42 c-4 -4 -10 -1 -12 6 -3 6 -11 12 -19 12 -15 0 -19 12 -7 23 3 4
15 -2 26 -14 10 -11 16 -23 12 -27z m425 -7 c-7 -9 -15 -13 -17 -11 -7 7 7 26
19 26 6 0 6 -6 -2 -15z m-6980 -17 c35 -38 20 -49 -37 -27 -26 10 -27 12 -11
23 10 7 15 16 11 19 -3 4 -1 7 5 7 6 0 20 -10 32 -22z m5359 13 c8 -5 -5 -7
-35 -4 -68 6 -77 11 -24 12 25 0 51 -3 59 -8z m-5119 -25 c0 -17 -27 -29 -35
-16 -4 6 -3 15 0 20 9 15 35 12 35 -4z m6674 -9 c-2 -7 7 -23 21 -35 35 -31
31 -42 -15 -42 -28 0 -43 5 -47 16 -7 20 24 87 37 79 5 -3 7 -11 4 -18z m-490
-18 c8 12 59 -2 64 -18 3 -10 -13 -11 -74 -6 -82 8 -110 15 -56 15 18 0 32 5
32 11 0 8 4 8 14 0 9 -7 17 -8 20 -2z m-2510 -5 c10 -4 16 -18 16 -35 0 -23
-5 -29 -21 -29 -31 0 -59 19 -59 40 0 25 30 37 64 24z m3334 -22 c3 -19 -1
-22 -32 -22 -41 0 -46 12 -14 34 28 20 42 16 46 -12z m-1948 -22 c0 -5 -7 -10
-15 -10 -8 0 -15 5 -15 10 0 6 7 10 15 10 8 0 15 -4 15 -10z m110 0 c0 -5 -7
-10 -15 -10 -8 0 -15 5 -15 10 0 6 7 10 15 10 8 0 15 -4 15 -10z m110 0 c0 -5
-7 -10 -15 -10 -8 0 -15 5 -15 10 0 6 7 10 15 10 8 0 15 -4 15 -10z m85 0 c3
-5 -1 -10 -10 -10 -9 0 -13 5 -10 10 3 6 8 10 10 10 2 0 7 -4 10 -10z m145
-10 c0 -5 -2 -10 -4 -10 -3 0 -8 5 -11 10 -3 6 -1 10 4 10 6 0 11 -4 11 -10z
m70 0 c0 -5 -2 -10 -4 -10 -3 0 -8 5 -11 10 -3 6 -1 10 4 10 6 0 11 -4 11 -10z
m70 0 c0 -5 -4 -10 -9 -10 -6 0 -13 5 -16 10 -3 6 1 10 9 10 9 0 16 -4 16 -10z
m60 0 c0 -5 -4 -10 -10 -10 -5 0 -10 5 -10 10 0 6 5 10 10 10 6 0 10 -4 10
-10z m100 0 c0 -5 -5 -10 -11 -10 -5 0 -7 5 -4 10 3 6 8 10 11 10 2 0 4 -4 4
-10z m50 0 c0 -5 -4 -10 -10 -10 -5 0 -10 5 -10 10 0 6 5 10 10 10 6 0 10 -4
10 -10z m265 0 c3 -5 1 -10 -4 -10 -6 0 -11 5 -11 10 0 6 2 10 4 10 3 0 8 -4
11 -10z m75 0 c0 -5 -4 -10 -10 -10 -5 0 -10 5 -10 10 0 6 5 10 10 10 6 0 10
-4 10 -10z m40 0 c0 -5 -2 -10 -4 -10 -3 0 -8 5 -11 10 -3 6 -1 10 4 10 6 0
11 -4 11 -10z m-2584 -96 c26 -38 13 -33 -35 15 -41 40 -42 42 -13 27 18 -9
39 -28 48 -42z m-2664 -26 c-4 -89 -9 -109 -22 -88 -7 10 -10 11 -10 3 0 -7
-7 -13 -16 -13 -8 0 -13 -4 -10 -9 3 -5 -6 -12 -22 -16 -39 -10 -93 -45 -86
-57 3 -5 13 -7 22 -3 9 3 14 3 10 0 -3 -4 2 -15 13 -26 10 -10 19 -23 19 -29
0 -5 -9 -1 -20 10 -20 20 -120 74 -120 65 0 -2 24 -20 54 -39 29 -19 60 -44
69 -56 11 -15 16 -18 20 -8 3 8 6 5 6 -7 1 -16 7 -20 29 -20 25 1 28 6 36 53
5 29 14 52 19 52 5 0 5 -15 1 -32 -4 -18 -6 -93 -6 -165 0 -73 -2 -134 -6
-136 -5 -3 -299 19 -308 22 -1 1 -5 11 -8 24 -7 21 -8 21 -15 3 -10 -27 -20
-7 -14 27 5 26 9 28 37 23 71 -13 186 -19 186 -9 0 6 -37 14 -82 18 -44 3 -92
11 -106 16 -22 9 -24 13 -18 54 l7 44 -48 4 -48 3 51 2 51 2 48 82 c54 91 142
185 225 240 30 21 57 37 60 38 3 0 4 -33 2 -72z m-1207 5 c-2 -27 -5 -50 -6
-53 0 -3 0 -17 1 -32 1 -16 -4 -28 -10 -28 -7 0 -10 -7 -6 -15 4 -10 -1 -15
-14 -15 -11 0 -20 6 -21 13 -4 87 -5 163 -2 170 2 4 17 7 33 7 29 0 29 -1 25
-47z m3793 12 l37 -34 -31 -1 c-22 0 -41 10 -67 35 l-36 35 30 0 c20 0 41 -11
67 -35z m1862 26 c0 -6 -4 -13 -10 -16 -5 -3 -10 1 -10 9 0 9 5 16 10 16 6 0
10 -4 10 -9z m-4410 -11 c0 -5 -5 -10 -11 -10 -5 0 -7 5 -4 10 3 6 8 10 11 10
2 0 4 -4 4 -10z m5610 -9 c0 -12 -2 -12 -180 -55 -205 -48 -210 -49 -210 -37
0 6 10 13 23 16 128 32 345 83 355 84 6 1 12 -3 12 -8z m66 -206 c1 -93 3
-176 5 -183 4 -15 -47 -59 -57 -50 -8 8 -12 68 -4 68 5 0 5 41 -5 218 -3 57
-3 108 1 113 3 6 18 9 32 7 l27 -3 1 -170z m-5686 113 c0 -16 -3 -19 -11 -11
-6 6 -8 16 -5 22 11 17 16 13 16 -11z m-3 -90 c-3 -8 -6 -5 -6 6 -1 11 2 17 5
13 3 -3 4 -12 1 -19z m2138 -38 c-3 -5 -18 -9 -33 -9 l-27 1 30 8 c17 4 31 8
33 9 2 0 0 -3 -3 -9z m-102 -17 c-7 -2 -19 -2 -25 0 -7 3 -2 5 12 5 14 0 19
-2 13 -5z m1297 -13 c-16 -31 -70 -54 -70 -30 0 6 8 10 18 10 11 0 27 9 37 20
23 25 29 25 15 0z m-1323 -12 c37 -4 56 -1 64 8 14 17 30 18 27 2 -2 -8 9 -11
35 -9 33 2 37 0 37 -22 0 -14 -7 -30 -15 -37 -8 -7 -15 -19 -15 -28 0 -9 -10
-26 -22 -39 -23 -24 -44 -31 -32 -10 4 6 -2 4 -14 -6 -12 -12 -28 -16 -40 -13
-12 4 -24 0 -33 -10 -13 -16 -11 -17 28 -11 48 8 78 20 113 44 13 10 21 12 17
6 -5 -7 -28 -24 -52 -38 -39 -23 -59 -27 -202 -35 -87 -5 -174 -9 -193 -9
l-35 1 35 8 c19 4 60 11 91 15 72 8 96 24 80 53 -19 36 -13 81 15 107 43 39
49 43 54 35 3 -4 29 -9 57 -12z m-417 -51 c0 -2 -10 -12 -22 -23 l-23 -19 19
23 c18 21 26 27 26 19z m3575 -16 c8 -14 -6 -91 -16 -91 -5 0 -9 23 -9 50 0
46 11 63 25 41z m-2985 -27 c0 -8 -19 -13 -24 -6 -3 5 1 9 9 9 8 0 15 -2 15
-3z m2910 -21 c0 -36 -10 -73 -20 -73 -12 0 -19 52 -9 77 12 32 29 29 29 -4z
m-1630 -9 c0 -20 -13 -17 -27 5 -10 16 -9 18 8 14 10 -3 19 -12 19 -19z m78 9
c-10 -2 -26 -2 -35 0 -10 3 -2 5 17 5 19 0 27 -2 18 -5z m1450 -8 c10 18 11
16 12 -17 0 -20 -5 -49 -11 -65 -10 -26 -12 -27 -19 -8 -5 11 -9 40 -9 65 0
31 3 39 8 25 8 -19 8 -19 19 0z m-1558 -14 c15 -29 13 -31 -22 -31 -42 0 -60
-12 -52 -33 8 -23 0 -21 -29 6 -24 21 -24 23 -8 44 29 35 95 44 111 14z m1460
10 c0 -11 -69 -35 -77 -27 -3 3 5 9 18 14 13 5 31 12 39 15 8 3 16 6 18 6 1 1
2 -3 2 -8z m-91 -35 c-8 -8 -252 -93 -289 -101 -70 -15 -16 11 118 56 123 41
184 57 171 45z m-4335 -57 c-16 -18 -32 -19 -216 -19 -187 0 -199 1 -219 21
-24 24 -17 39 8 17 15 -13 55 -17 206 -20 197 -5 225 0 228 40 1 15 2 14 6 -1
3 -10 -3 -27 -13 -38z m651 12 c-4 -17 -15 -36 -25 -41 -22 -12 -113 -13 -333
-3 -158 6 -187 13 -187 46 0 6 6 3 13 -6 14 -20 47 -24 295 -32 181 -7 184 -6
208 16 13 12 24 31 24 42 0 11 3 18 6 14 3 -3 3 -19 -1 -36z m415 9 c0 -5 -10
-10 -22 -9 -22 0 -22 1 -3 9 11 5 21 9 23 9 1 1 2 -3 2 -9z m2617 -66 c-10
-10 -77 -16 -77 -7 0 6 15 10 32 11 18 0 35 7 37 14 4 11 5 11 9 0 2 -7 2 -15
-1 -18z m-4526 -28 c-26 -31 94 -52 429 -75 110 -8 112 -8 35 -9 -166 -3 -480
26 -515 48 -12 7 -11 12 4 29 22 24 66 31 47 7z m2946 -49 c-3 -7 1 -28 9 -46
19 -45 50 -39 47 9 l-2 35 14 -31 c8 -17 24 -34 36 -37 21 -6 21 -7 -9 -32
-16 -14 -40 -49 -52 -79 -18 -42 -26 -52 -41 -49 -22 6 -22 7 -7 50 10 27 10
38 0 54 -7 11 -10 24 -7 28 3 5 -4 7 -15 4 -26 -7 -26 14 0 22 15 5 19 13 16
31 -5 25 1 54 11 54 3 0 3 -6 0 -13z m1178 -6 c-9 -7 -212 -61 -232 -61 -4 0
-2 5 5 12 6 6 58 22 114 34 122 26 125 27 113 15z m-281 -70 c-13 -14 -92 -26
-79 -13 11 11 77 31 84 25 3 -2 0 -7 -5 -12z m621 10 c3 -5 19 -8 36 -6 l31 4
-7 -52 c-8 -59 -33 -119 -53 -125 -11 -3 -10 3 2 26 18 35 21 72 6 72 -5 0 -7
-6 -4 -13 3 -10 -4 -14 -26 -14 -20 0 -29 5 -26 12 2 7 8 33 11 59 7 44 17 57
30 37z m-1584 -67 c-5 -16 -10 -21 -10 -12 -1 18 10 51 15 45 2 -1 -1 -16 -5
-33z m-3028 -141 c-7 -2 -19 -2 -25 0 -7 3 -2 5 12 5 14 0 19 -2 13 -5z m320
-78 c-3 -9 -8 -14 -10 -11 -3 3 -2 9 2 15 9 16 15 13 8 -4z m2938 -39 c-15
-17 -55 -26 -73 -15 -9 6 -5 9 13 9 14 0 34 6 45 14 23 17 32 12 15 -8z
m-2961 -11 c-5 -14 -21 -42 -35 -63 -14 -20 -25 -42 -25 -49 0 -7 -7 -13 -15
-13 -19 0 -11 21 37 93 42 62 53 71 38 32z m2810 -43 c0 -4 -29 -16 -65 -28
-58 -18 -65 -18 -65 -4 0 12 15 19 53 27 71 14 77 14 77 5z m174 -144 c-26
-85 -89 -178 -120 -178 -8 0 -3 10 13 28 14 15 41 60 60 100 33 68 63 100 47
50z m-3019 -8 c3 -5 1 -10 -4 -10 -6 0 -11 5 -11 10 0 6 2 10 4 10 3 0 8 -4
11 -10z m-378 -86 c-3 -3 -12 -4 -19 -1 -8 3 -5 6 6 6 11 1 17 -2 13 -5z"/>
<path d="M6913 4223 c9 -14 87 -77 87 -70 0 3 -21 22 -47 43 -26 21 -44 33
-40 27z"/>
<path d="M6080 3488 c0 -10 -8 -18 -17 -19 -15 0 -15 -2 2 -9 26 -10 40 3 26
27 -10 17 -10 17 -11 1z"/>
<path d="M6028 3483 c6 -2 18 -2 25 0 6 3 1 5 -13 5 -14 0 -19 -2 -12 -5z"/>
<path d="M2210 3574 c-198 -20 -261 -36 -318 -82 -23 -18 -20 -18 110 -1 74
10 175 20 226 22 92 4 93 4 113 36 10 17 19 33 19 36 0 4 1 5 -150 -11z"/>
<path d="M2382 3578 c-19 -19 -14 -28 16 -28 27 0 52 15 52 32 0 13 -55 9 -68
-4z"/>
<path d="M3370 3670 c0 -13 11 -13 30 0 12 8 11 10 -7 10 -13 0 -23 -4 -23
-10z"/>
<path d="M2908 3453 c7 -3 16 -2 19 1 4 3 -2 6 -13 5 -11 0 -14 -3 -6 -6z"/>
<path d="M3860 2639 c0 -5 5 -7 10 -4 6 3 10 8 10 11 0 2 -4 4 -10 4 -5 0 -10
-5 -10 -11z"/>
<path d="M3936 2623 c-6 -14 -5 -15 5 -6 7 7 10 15 7 18 -3 3 -9 -2 -12 -12z"/>
<path d="M6761 5346 c-9 -11 -7 -14 12 -18 30 -6 47 0 47 18 0 18 -44 18 -59
0z"/>
<path d="M4948 5233 c17 -2 47 -2 65 0 17 2 3 4 -33 4 -36 0 -50 -2 -32 -4z"/>
<path d="M14 5098 c-10 -14 -9 -43 5 -103 7 -34 16 -33 12 2 -1 6 14 19 33 28
l35 17 -22 22 c-41 41 -53 48 -63 34z"/>
<path d="M7608 5013 c7 -3 16 -2 19 1 4 3 -2 6 -13 5 -11 0 -14 -3 -6 -6z"/>
<path d="M14 4933 c-8 -19 -14 -296 -6 -325 4 -18 62 -23 62 -6 0 5 4 7 9 4
12 -8 54 41 46 53 -3 6 -13 11 -21 11 -8 0 -14 4 -14 10 0 19 46 21 115 4 39
-8 88 -18 110 -21 22 -3 43 -9 46 -14 3 -5 34 -12 70 -15 61 -5 90 -8 306 -35
112 -14 179 -6 186 21 3 11 1 20 -4 20 -5 0 -9 7 -9 15 0 8 -9 19 -19 25 -11
5 -26 16 -33 24 -8 7 -28 21 -46 30 -18 9 -32 23 -32 31 0 14 -19 21 -198 70
-51 14 -112 35 -135 47 -36 18 -62 21 -177 24 -129 2 -211 14 -236 35 -8 6
-14 3 -20 -8z"/>
<path d="M7971 4524 c0 -11 3 -14 6 -6 3 7 2 16 -1 19 -3 4 -6 -2 -5 -13z"/>
<path d="M2956 4495 c-9 -14 -26 -25 -37 -25 -16 0 -18 -2 -7 -14 11 -12 18
-10 46 17 32 31 40 47 23 47 -5 0 -16 -11 -25 -25z"/>
<path d="M2798 4283 c18 -2 45 -2 60 0 15 2 0 4 -33 4 -33 0 -45 -2 -27 -4z"/>
<path d="M2668 4273 c17 -2 47 -2 65 0 17 2 3 4 -33 4 -36 0 -50 -2 -32 -4z"/>
<path d="M2910 3879 c0 -5 5 -7 10 -4 6 3 10 8 10 11 0 2 -4 4 -10 4 -5 0 -10
-5 -10 -11z"/>
<path d="M7913 2719 l-81 -69 0 -66 c0 -47 -4 -70 -15 -82 -21 -21 -23 -17
-31 47 -4 30 -8 56 -9 57 -1 1 -70 -53 -153 -120 -262 -210 -342 -272 -824
-642 -274 -211 -370 -284 -655 -499 -221 -167 -501 -381 -621 -474 -40 -31
-195 -150 -345 -266 -386 -297 -448 -345 -623 -480 l-155 -120 1796 -3 c988
-1 1798 -1 1800 1 2 2 2 630 1 1394 l-3 1391 -82 -69z m-83 -293 c0 -3 -4 -8
-10 -11 -5 -3 -10 -1 -10 4 0 6 5 11 10 11 6 0 10 -2 10 -4z m-316 -61 c-7
-16 -24 -21 -24 -6 0 8 7 13 27 20 1 1 0 -6 -3 -14z"/>
</g>
</svg>
