<?xml version="1.0" encoding="UTF-8"?>
<svg version="1.1" xmlns="http://www.w3.org/2000/svg" width="64" height="64">
<path d="M0 0 C1.08732422 0.0103125 2.17464844 0.020625 3.29492188 0.03125 C11.25220238 0.18970238 11.25220238 0.18970238 13.5625 2.5 C13.78955078 4.83837891 13.78955078 4.83837891 13.7578125 7.7265625 C13.75136719 8.7578125 13.74492188 9.7890625 13.73828125 10.8515625 C13.72152344 11.93179687 13.70476563 13.01203125 13.6875 14.125 C13.67847656 15.21296875 13.66945312 16.3009375 13.66015625 17.421875 C13.63653409 20.11480152 13.60359556 22.80729255 13.5625 25.5 C14.34496094 25.56058594 15.12742188 25.62117188 15.93359375 25.68359375 C17.45146484 25.80927734 17.45146484 25.80927734 19 25.9375 C20.51400391 26.05931641 20.51400391 26.05931641 22.05859375 26.18359375 C24.5625 26.5 24.5625 26.5 25.5625 27.5 C26.04239017 31.46608781 26.12127656 35.4470734 26.25 39.4375 C26.32927734 40.54158203 26.40855469 41.64566406 26.49023438 42.78320312 C26.64388552 48.83277042 25.84882916 53.34014635 22.2109375 58.2734375 C13.30498663 66.08047388 -0.45192965 63.54941079 -11.5 63.1875 C-13.99927783 63.14587506 -16.49863437 63.10872099 -18.99804688 63.07617188 C-23.53882922 63.00151137 -28.07821513 62.9143013 -32.61743164 62.7722168 C-33.98116661 62.73030464 -33.98116661 62.73030464 -35.37245178 62.68754578 C-37.4375 62.5 -37.4375 62.5 -38.4375 61.5 C-41.00526109 39.52823412 -41.00526109 39.52823412 -37.38574219 32.44042969 C-34.6605549 29.34735211 -31.32313615 27.69602915 -27.4375 26.5 C-26.7775 26.5 -26.1175 26.5 -25.4375 26.5 C-25.48390625 25.39140625 -25.5303125 24.2828125 -25.578125 23.140625 C-25.61565102 21.67711032 -25.65205029 20.21356644 -25.6875 18.75 C-25.72101562 18.02039063 -25.75453125 17.29078125 -25.7890625 16.5390625 C-25.84754535 13.32250561 -25.81911622 11.06216582 -23.984375 8.359375 C-22.72367188 7.43898438 -22.72367188 7.43898438 -21.4375 6.5 C-20.53100708 5.73187988 -20.53100708 5.73187988 -19.60620117 4.94824219 C-13.24535197 -0.00351683 -7.87173179 -0.30625583 0 0 Z M-16.4375 8.5 C-13.64811788 8.91890218 -13.64811788 8.91890218 -10.4375 8.5 C-7.56109384 6.12499209 -7.56109384 6.12499209 -5.4375 3.5 C-11.01873677 2.85101898 -12.86147174 4.29290793 -16.4375 8.5 Z M-2.375 6 C-3.055625 6.825 -3.73625 7.65 -4.4375 8.5 C-1.14750718 8.91831404 -1.14750718 8.91831404 2.5625 8.5 C5.50223281 6.14581624 5.50223281 6.14581624 7.5625 3.5 C2.97738033 3.05047846 1.21629143 2.94358176 -2.375 6 Z M7.01953125 7.38671875 C3.59929824 11.72046391 3.99092745 14.96763396 4.25 20.3125 C4.27255859 21.19615234 4.29511719 22.07980469 4.31835938 22.99023438 C4.37702572 25.1608891 4.46670021 27.3306669 4.5625 29.5 C8.99652739 26.80637046 8.99652739 26.80637046 11.05761719 22.30615234 C11.15255689 19.74431157 11.08635402 17.24664408 10.9375 14.6875 C10.91042969 13.80384766 10.88335937 12.92019531 10.85546875 12.00976562 C10.78505869 9.83878886 10.67744606 7.66907471 10.5625 5.5 C9.16860821 5.40069218 9.16860821 5.40069218 7.01953125 7.38671875 Z M-22.4375 12.5 C-22.53630797 13.97652664 -22.56829245 15.45767236 -22.5703125 16.9375 C-22.57160156 17.83210938 -22.57289062 18.72671875 -22.57421875 19.6484375 C-22.57035156 20.58945312 -22.56648438 21.53046875 -22.5625 22.5 C-22.56636719 23.44101562 -22.57023437 24.38203125 -22.57421875 25.3515625 C-22.57292969 26.24617188 -22.57164063 27.14078125 -22.5703125 28.0625 C-22.56918457 28.88878906 -22.56805664 29.71507813 -22.56689453 30.56640625 C-22.65014807 32.50679039 -22.65014807 32.50679039 -21.4375 33.5 C-19.72977642 33.58713831 -18.01851351 33.60700007 -16.30859375 33.59765625 C-15.27412109 33.59443359 -14.23964844 33.59121094 -13.17382812 33.58789062 C-12.08521484 33.57951172 -10.99660156 33.57113281 -9.875 33.5625 C-8.78251953 33.55798828 -7.69003906 33.55347656 -6.56445312 33.54882812 C-3.85544568 33.5369984 -1.1464662 33.51906231 1.5625 33.5 C1.5625 26.24 1.5625 18.98 1.5625 11.5 C-2.25004623 11.47317208 -6.06240612 11.45324523 -9.875 11.4375 C-10.96361328 11.42912109 -12.05222656 11.42074219 -13.17382812 11.41210938 C-14.72553711 11.40727539 -14.72553711 11.40727539 -16.30859375 11.40234375 C-17.26693115 11.39710693 -18.22526855 11.39187012 -19.21264648 11.38647461 C-21.41035339 11.2494687 -21.41035339 11.2494687 -22.4375 12.5 Z M7.73828125 31.515625 C7.35027344 32.17046875 6.96226563 32.8253125 6.5625 33.5 C12.76113615 34.12314211 12.76113615 34.12314211 18.125 31.5 C18.8365625 30.51 18.8365625 30.51 19.5625 29.5 C17.9598218 29.39175157 16.35504252 29.31429355 14.75 29.25 C13.41001953 29.18039063 13.41001953 29.18039063 12.04296875 29.109375 C9.39575291 29.26018967 9.39575291 29.26018967 7.73828125 31.515625 Z M-26.4375 30.5 C-27.4275 31.49 -28.4175 32.48 -29.4375 33.5 C-28.1175 33.5 -26.7975 33.5 -25.4375 33.5 C-25.7675 32.51 -26.0975 31.52 -26.4375 30.5 Z M17.5625 35.5 C17.01412405 37.71269202 17.01412405 37.71269202 17.171875 40.16796875 C17.18476562 41.06064453 17.19765625 41.95332031 17.2109375 42.87304688 C17.24445312 43.80181641 17.27796875 44.73058594 17.3125 45.6875 C17.33054688 46.62787109 17.34859375 47.56824219 17.3671875 48.53710938 C17.4143345 50.85909889 17.48011769 53.1790369 17.5625 55.5 C20.24108116 54.15469194 20.24108116 54.15469194 22.5625 51.5 C23.20040959 48.2357147 23.03391856 45.06039577 22.875 41.75 C22.85244141 40.86183594 22.82988281 39.97367188 22.80664062 39.05859375 C22.74782552 36.87067188 22.66571268 34.68620329 22.5625 32.5 C20.40339169 32.5 19.06117264 34.13131427 17.5625 35.5 Z M-35.4375 36.5 C-35.4375 44.09 -35.4375 51.68 -35.4375 59.5 C-27.8475 59.5 -20.2575 59.5 -12.4375 59.5 C-12.4375 51.91 -12.4375 44.32 -12.4375 36.5 C-20.0275 36.5 -27.6175 36.5 -35.4375 36.5 Z M-9.4375 37.5 C-9.53649523 39.04955559 -9.56829524 40.60353673 -9.5703125 42.15625 C-9.57160156 43.09597656 -9.57289062 44.03570312 -9.57421875 45.00390625 C-9.57035156 45.99261719 -9.56648438 46.98132813 -9.5625 48 C-9.56636719 48.98871094 -9.57023437 49.97742188 -9.57421875 50.99609375 C-9.57292969 51.93582031 -9.57164063 52.87554687 -9.5703125 53.84375 C-9.56918457 54.71193359 -9.56805664 55.58011719 -9.56689453 56.47460938 C-9.6616537 58.49604154 -9.6616537 58.49604154 -8.4375 59.5 C-6.72977642 59.58713831 -5.01851351 59.60700007 -3.30859375 59.59765625 C-2.27412109 59.59443359 -1.23964844 59.59121094 -0.17382812 59.58789062 C0.91478516 59.57951172 2.00339844 59.57113281 3.125 59.5625 C4.21748047 59.55798828 5.30996094 59.55347656 6.43554688 59.54882812 C9.14458495 59.53699826 11.85351599 59.52051543 14.5625 59.5 C14.59137512 55.85418313 14.60925585 52.20839537 14.625 48.5625 C14.63337891 47.52158203 14.64175781 46.48066406 14.65039062 45.40820312 C14.65361328 44.41884766 14.65683594 43.42949219 14.66015625 42.41015625 C14.66539307 41.49371338 14.67062988 40.57727051 14.67602539 39.63305664 C14.80171211 37.51636977 14.80171211 37.51636977 13.5625 36.5 C11.93992456 36.4008343 10.31310169 36.36920223 8.6875 36.3671875 C7.70265625 36.36589844 6.7178125 36.36460938 5.703125 36.36328125 C4.14851563 36.36908203 4.14851563 36.36908203 2.5625 36.375 C1.52609375 36.37113281 0.4896875 36.36726563 -0.578125 36.36328125 C-1.56296875 36.36457031 -2.5478125 36.36585937 -3.5625 36.3671875 C-4.47257812 36.36831543 -5.38265625 36.36944336 -6.3203125 36.37060547 C-8.4227848 36.26439991 -8.4227848 36.26439991 -9.4375 37.5 Z " fill="#000000" transform="translate(38.4375,0.5)"/>
<path d="M0 0 C3.5 0.125 3.5 0.125 4.5 1.125 C4.54080783 3.12458364 4.54254356 5.12545254 4.5 7.125 C1.73749964 8.50625018 -0.44731099 8.31579306 -3.5 8.125 C-4.16 7.465 -4.82 6.805 -5.5 6.125 C-4.77384077 0.17049431 -4.77384077 0.17049431 0 0 Z M-1.5 3.125 C-1.5 3.785 -1.5 4.445 -1.5 5.125 C-0.51 5.125 0.48 5.125 1.5 5.125 C1.5 4.465 1.5 3.805 1.5 3.125 C0.51 3.125 -0.48 3.125 -1.5 3.125 Z " fill="#000000" transform="translate(35.5,50.875)"/>
<path d="M0 0 C3.5 0.125 3.5 0.125 4.5 1.125 C4.625 4.125 4.625 4.125 4.5 7.125 C3.5 8.125 3.5 8.125 0 8.25 C-3.5 8.125 -3.5 8.125 -4.5 7.125 C-4.625 4.125 -4.625 4.125 -4.5 1.125 C-3.5 0.125 -3.5 0.125 0 0 Z M-1.5 3.125 C-1.5 3.785 -1.5 4.445 -1.5 5.125 C-0.51 5.125 0.48 5.125 1.5 5.125 C1.5 4.465 1.5 3.805 1.5 3.125 C0.51 3.125 -0.48 3.125 -1.5 3.125 Z " fill="#000000" transform="translate(8.5,50.875)"/>
<path d="M0 0 C2.97 0 5.94 0 9 0 C9.04254356 1.99954746 9.04080783 4.00041636 9 6 C8 7 8 7 6.15234375 7.09765625 C4.1015625 7.06510417 2.05078125 7.03255208 0 7 C0 4.69 0 2.38 0 0 Z " fill="#000000" transform="translate(18,26)"/>
<path d="M0 0 C2.31 0 4.62 0 7 0 C6.67 0.99 6.34 1.98 6 3 C4.35 3 2.7 3 1 3 C0.67 2.01 0.34 1.02 0 0 Z " fill="#000000" transform="translate(45,56)"/>
<path d="M0 0 C1.65 0 3.3 0 5 0 C5.33 0.99 5.66 1.98 6 3 C3.69 3 1.38 3 -1 3 C-0.67 2.01 -0.34 1.02 0 0 Z " fill="#000000" transform="translate(46,51)"/>
<path d="M0 0 C1.98 0 3.96 0 6 0 C6 0.99 6 1.98 6 3 C4.02 3 2.04 3 0 3 C0 2.01 0 1.02 0 0 Z " fill="#000000" transform="translate(19,51)"/>
<path d="M0 0 C1.98 0 3.96 0 6 0 C6 0.99 6 1.98 6 3 C4.02 3 2.04 3 0 3 C0 2.01 0 1.02 0 0 Z " fill="#000000" transform="translate(33,30)"/>
<path d="M0 0 C1.98 0 3.96 0 6 0 C5.67 0.99 5.34 1.98 5 3 C3.35 3 1.7 3 0 3 C0 2.01 0 1.02 0 0 Z " fill="#000000" transform="translate(19,56)"/>
<path d="M0 0 C1.98 0 3.96 0 6 0 C5.67 0.99 5.34 1.98 5 3 C3.35 3 1.7 3 0 3 C0 2.01 0 1.02 0 0 Z " fill="#000000" transform="translate(33,26)"/>
</svg>
