<?xml version="1.0" encoding="UTF-8"?>
<svg version="1.1" xmlns="http://www.w3.org/2000/svg" width="64" height="64">
<path d="M0 0 C5.71925344 4.5677259 9.38880601 9.15566331 10.74609375 16.39453125 C8.55859375 16.89453125 8.55859375 16.89453125 5.74609375 16.39453125 C4.546875 14.7890625 4.546875 14.7890625 3.37109375 12.70703125 C0.87094318 8.34144326 -1.61350467 5.48585343 -6.25390625 3.39453125 C-12.63453729 1.74029357 -17.44985077 2.04603771 -23.25390625 5.39453125 C-27.72795817 8.57799127 -30.13172119 11.32486693 -32.25390625 16.39453125 C-33.90390625 16.39453125 -35.55390625 16.39453125 -37.25390625 16.39453125 C-35.23013064 7.89467367 -31.55240888 3.1139921 -24.19140625 -1.54296875 C-16.83205329 -4.20698792 -6.76375159 -4.11643376 0 0 Z " fill="#000000" transform="translate(45.25390625,2.60546875)"/>
<path d="M0 0 C3.96 0 7.92 0 12 0 C12 7.92 12 15.84 12 24 C8.04 24 4.08 24 0 24 C0 16.08 0 8.16 0 0 Z " fill="#000000" transform="translate(52,22)"/>
<path d="M0 0 C3.96 0 7.92 0 12 0 C12 7.92 12 15.84 12 24 C8.04 24 4.08 24 0 24 C0 16.08 0 8.16 0 0 Z " fill="#000000" transform="translate(0,22)"/>
<path d="M0 0 C2.0625 0.4375 2.0625 0.4375 4 1 C3.84817368 3.65696068 3.52675976 5.44234524 1.66796875 7.41015625 C-3.68507964 11.87754214 -6.27288303 12.10850189 -13 12 C-13.66 13.32 -14.32 14.64 -15 16 C-21.0546875 16.1953125 -21.0546875 16.1953125 -23 16 C-25 14 -25 14 -25.3125 10.5625 C-25 7 -25 7 -23.875 5.0625 C-21.11019567 3.49577755 -19.11811483 3.61023565 -16 4 C-15.525625 4.515625 -15.05125 5.03125 -14.5625 5.5625 C-12.93989897 7.3808443 -12.93989897 7.3808443 -9.625 7 C-5.41503279 5.83862974 -3.79269096 4.28551878 -1 1 C-0.67 0.67 -0.34 0.34 0 0 Z " fill="#000000" transform="translate(51,48)"/>
<path d="M0 0 C2 2 2 2 2.5625 5.1875 C1.77971959 10.49301168 -1.01159223 12.65258633 -5 16 C-2.69 16.33 -0.38 16.66 2 17 C2 18.32 2 19.64 2 21 C-2.62 21 -7.24 21 -12 21 C-12 15 -12 15 -10.25 12.76953125 C-9.13625 11.80080078 -9.13625 11.80080078 -8 10.8125 C-5.77811222 8.91428813 -5.77811222 8.91428813 -4 7 C-4 6.01 -4 5.02 -4 4 C-4.99 4.33 -5.98 4.66 -7 5 C-7.33 5.99 -7.66 6.98 -8 8 C-9.32 8 -10.64 8 -12 8 C-12.36627907 2.50581395 -12.36627907 2.50581395 -10.6875 0.1875 C-6.67000106 -2.63962889 -4.30650859 -1.740929 0 0 Z " fill="#000000" transform="translate(28,23)"/>
<path d="M0 0 C0.66 0.33 1.32 0.66 2 1 C2 4.96 2 8.92 2 13 C2.66 13 3.32 13 4 13 C4 14.32 4 15.64 4 17 C3.34 17 2.68 17 2 17 C2 18.98 2 20.96 2 23 C0.68 23 -0.64 23 -2 23 C-2 21.02 -2 19.04 -2 17 C-5.3 17 -8.6 17 -12 17 C-12.45278363 13.03524082 -12.36889356 11.47711141 -9.8828125 8.26171875 C-8.97273438 7.41222656 -8.06265625 6.56273437 -7.125 5.6875 C-6.22007813 4.82511719 -5.31515625 3.96273438 -4.3828125 3.07421875 C-2 1 -2 1 0 0 Z M-3 9 C-4.485 10.98 -4.485 10.98 -6 13 C-4.68 13 -3.36 13 -2 13 C-2.33 11.68 -2.66 10.36 -3 9 Z " fill="#000000" transform="translate(45,21)"/>
</svg>
