<?xml version="1.0" standalone="no"?>
<!DOCTYPE svg PUBLIC "-//W3C//DTD SVG 20010904//EN"
 "http://www.w3.org/TR/2001/REC-SVG-20010904/DTD/svg10.dtd">
<svg version="1.0" xmlns="http://www.w3.org/2000/svg"
 width="64.000000pt" height="64.000000pt" viewBox="0 0 64.000000 64.000000"
 preserveAspectRatio="xMidYMid meet">

<g transform="translate(0.000000,64.000000) scale(0.100000,-0.100000)"
fill="#000000" stroke="none">
<path d="M55 607 c-66 -66 -70 -177 -10 -302 42 -87 146 -205 181 -205 13 0
24 5 24 11 0 6 -29 43 -65 81 -87 95 -128 180 -129 270 -1 53 3 72 20 95 30
41 56 40 93 -2 39 -45 41 -83 5 -116 -47 -44 -48 -55 -14 -108 35 -55 127
-146 182 -179 41 -26 56 -22 97 22 33 35 72 34 116 -5 42 -37 44 -60 9 -88
-36 -29 -86 -36 -152 -21 -86 18 -97 18 -97 -5 0 -15 13 -23 55 -37 104 -32
200 -14 248 47 31 39 28 78 -9 120 -64 73 -135 86 -193 34 -31 -27 -38 -29
-58 -18 -34 18 -126 108 -149 146 l-21 33 31 35 c52 59 39 129 -34 194 -48 42
-86 42 -130 -2z"/>
<path d="M396 590 c-60 -64 -60 -86 0 -150 48 -52 70 -61 81 -34 3 9 -7 28
-28 50 l-33 34 56 0 c83 0 111 -27 118 -112 4 -55 8 -63 25 -63 17 0 20 8 23
54 4 64 -9 98 -49 137 -26 25 -39 29 -100 32 l-71 4 32 34 c20 20 30 39 27 48
-11 27 -33 18 -81 -34z"/>
</g>
</svg>
