<?xml version="1.0" encoding="UTF-8"?>
<svg version="1.1" xmlns="http://www.w3.org/2000/svg" width="64" height="64">
<path d="M0 0 C0.74185547 -0.020625 1.48371094 -0.04125 2.24804688 -0.0625 C4.40234375 -0.078125 4.40234375 -0.078125 8.0625 0.25 C10.50758878 3.91763317 10.36135724 5.88431775 10.375 10.25 C10.39175781 11.4875 10.40851562 12.725 10.42578125 14 C10.0625 17.25 10.0625 17.25 8.54296875 19.1875 C8.05441406 19.538125 7.56585938 19.88875 7.0625 20.25 C7.90554687 20.40855469 8.74859375 20.56710938 9.6171875 20.73046875 C10.71289062 20.96378906 11.80859375 21.19710938 12.9375 21.4375 C14.02804688 21.65792969 15.11859375 21.87835937 16.2421875 22.10546875 C19.0625 23.25 19.0625 23.25 20.4296875 25.4296875 C21.17617222 28.75661324 21.32731286 31.77684 21.3125 35.1875 C21.31765625 36.37214844 21.3228125 37.55679688 21.328125 38.77734375 C21.06243706 42.25082283 20.30870553 45.01085468 19.0625 48.25 C19.7225 48.25 20.3825 48.25 21.0625 48.25 C21.3925 51.22 21.7225 54.19 22.0625 57.25 C19.48092632 57.78132389 16.89788244 58.30034379 14.3125 58.8125 C13.21808594 59.03969727 13.21808594 59.03969727 12.1015625 59.27148438 C8.39692927 59.99557178 5.66927678 60.34817231 2.0625 59.25 C0.9375 52.625 0.9375 52.625 2.0625 49.25 C1.01449219 48.14591797 1.01449219 48.14591797 -0.0546875 47.01953125 C-0.97432954 46.03420049 -1.89357976 45.04850394 -2.8125 44.0625 C-3.27269531 43.57974609 -3.73289062 43.09699219 -4.20703125 42.59960938 C-6.93352984 39.65578119 -8.71888135 37.08094484 -9.9375 33.25 C-7.8125 32.0625 -7.8125 32.0625 -4.9375 31.25 C-1.625 32.625 -1.625 32.625 1.0625 34.25 C0.8975 33.445625 0.7325 32.64125 0.5625 31.8125 C-0.02997348 27.59112648 -0.02256709 23.50335455 0.0625 19.25 C-1.236875 19.270625 -2.53625 19.29125 -3.875 19.3125 C-5.22915633 19.33399454 -6.58506083 19.32148199 -7.9375 19.25 C-9.8230253 17.3644747 -9.06996689 14.67231169 -9.07421875 12.16796875 C-9.07035156 11.37003906 -9.06648438 10.57210938 -9.0625 9.75 C-9.06636719 8.95207031 -9.07023437 8.15414063 -9.07421875 7.33203125 C-9.06059759 -0.69083324 -7.34667034 0.05079807 0 0 Z M2.0625 16.25 C2.3925 23.18 2.7225 30.11 3.0625 37.25 C0.7525 36.26 -1.5575 35.27 -3.9375 34.25 C-4.9275 34.58 -5.9175 34.91 -6.9375 35.25 C-6.23882813 35.99765625 -5.54015625 36.7453125 -4.8203125 37.515625 C-3.90080322 38.51019627 -2.98154559 39.50500023 -2.0625 40.5 C-1.60230469 40.99113281 -1.14210938 41.48226562 -0.66796875 41.98828125 C1.8231093 44.69597478 3.39277638 46.91055277 5.0625 50.25 C9.0225 49.59 12.9825 48.93 17.0625 48.25 C19.36116516 40.34833852 19.72490201 33.35420981 18.0625 25.25 C17.4025 25.25 16.7425 25.25 16.0625 25.25 C16.0625 26.9 16.0625 28.55 16.0625 30.25 C15.4025 30.25 14.7425 30.25 14.0625 30.25 C13.7325 28.27 13.4025 26.29 13.0625 24.25 C12.7325 24.25 12.4025 24.25 12.0625 24.25 C12.0625 26.23 12.0625 28.21 12.0625 30.25 C11.4025 30.25 10.7425 30.25 10.0625 30.25 C9.7325 27.94 9.4025 25.63 9.0625 23.25 C8.4025 23.25 7.7425 23.25 7.0625 23.25 C7.3925 25.56 7.7225 27.87 8.0625 30.25 C7.4025 30.25 6.7425 30.25 6.0625 30.25 C5.94132812 29.32316406 5.82015625 28.39632813 5.6953125 27.44140625 C5.52773438 26.24386719 5.36015625 25.04632813 5.1875 23.8125 C4.94386719 22.02005859 4.94386719 22.02005859 4.6953125 20.19140625 C4.48648438 19.22074219 4.27765625 18.25007813 4.0625 17.25 C3.4025 16.92 2.7425 16.59 2.0625 16.25 Z " fill="#000000" transform="translate(31.9375,1.75)"/>
<path d="M0 0 C1.79244141 0.01740234 1.79244141 0.01740234 3.62109375 0.03515625 C5.41740234 0.04869141 5.41740234 0.04869141 7.25 0.0625 C8.17683594 0.07410156 9.10367187 0.08570313 10.05859375 0.09765625 C10.08545313 2.24342262 10.10492463 4.3892827 10.12109375 6.53515625 C10.13269531 7.73011719 10.14429688 8.92507812 10.15625 10.15625 C10.05859375 13.09765625 10.05859375 13.09765625 9.05859375 14.09765625 C7.06059803 14.19639441 5.05902217 14.22737424 3.05859375 14.22265625 C1.96546875 14.22523437 0.87234375 14.2278125 -0.25390625 14.23046875 C-2.94140625 14.09765625 -2.94140625 14.09765625 -3.94140625 13.09765625 C-4.04014441 11.09966053 -4.07112424 9.09808467 -4.06640625 7.09765625 C-4.06898438 6.00453125 -4.0715625 4.91140625 -4.07421875 3.78515625 C-3.88830844 0.02320635 -3.79903485 0.12612998 0 0 Z M2.05859375 5.09765625 C2.05859375 6.08765625 2.05859375 7.07765625 2.05859375 8.09765625 C3.04859375 8.09765625 4.03859375 8.09765625 5.05859375 8.09765625 C4.72859375 7.10765625 4.39859375 6.11765625 4.05859375 5.09765625 C3.39859375 5.09765625 2.73859375 5.09765625 2.05859375 5.09765625 Z " fill="#000000" transform="translate(9.94140625,13.90234375)"/>
<path d="M0 0 C1.50046875 0.00386719 1.50046875 0.00386719 3.03125 0.0078125 C4.0315625 0.00523437 5.031875 0.00265625 6.0625 0 C8.53125 0.1328125 8.53125 0.1328125 9.53125 1.1328125 C9.67518457 5.46812168 9.57337061 9.79438981 9.53125 14.1328125 C5.24125 14.1328125 0.95125 14.1328125 -3.46875 14.1328125 C-3.56640625 4.07421875 -3.56640625 4.07421875 -3.46875 1.1328125 C-2.46875 0.1328125 -2.46875 0.1328125 0 0 Z M2.53125 5.1328125 C2.53125 6.4528125 2.53125 7.7728125 2.53125 9.1328125 C3.19125 8.8028125 3.85125 8.4728125 4.53125 8.1328125 C4.20125 7.1428125 3.87125 6.1528125 3.53125 5.1328125 C3.20125 5.1328125 2.87125 5.1328125 2.53125 5.1328125 Z " fill="#000000" transform="translate(48.46875,6.8671875)"/>
</svg>
