<?xml version="1.0" encoding="UTF-8"?>
<svg version="1.1" xmlns="http://www.w3.org/2000/svg" width="64" height="64">
<path d="M0 0 C4.63490409 2.26109055 7.27958625 5.11926099 9 10 C9.51047373 14.26812759 9.36066504 17.91800489 8 22 C11.3 22 14.6 22 18 22 C18 35.86 18 49.72 18 64 C-3.12 64 -24.24 64 -46 64 C-46 50.14 -46 36.28 -46 22 C-37.42 21.67 -28.84 21.34 -20 21 C-20.33 20.34 -20.66 19.68 -21 19 C-21.56735892 14.34951706 -21.4598631 10.90269423 -19.3125 6.6875 C-18.549375 5.800625 -17.78625 4.91375 -17 4 C-16.34 3.21625 -15.68 2.4325 -15 1.625 C-10.26917095 -0.9375324 -5.26397336 -0.77699607 0 0 Z " fill="#E2F1F8" transform="translate(46,0)"/>
<path d="M0 0 C9.24 0 18.48 0 28 0 C28.66 1.32 29.32 2.64 30 4 C21.42 4 12.84 4 4 4 C4 15.22 4 26.44 4 38 C13.9 38 23.8 38 34 38 C34 36.35 34 34.7 34 33 C38.62 33 43.24 33 48 33 C48 34.65 48 36.3 48 38 C49.32 38 50.64 38 52 38 C52 33.05 52 28.1 52 23 C54.64 23 57.28 23 60 23 C60 21.68 60 20.36 60 19 C57.36 19 54.72 19 52 19 C52 14.05 52 9.1 52 4 C51.34 3.67 50.68 3.34 50 3 C50.99 2.01 51.98 1.02 53 0 C56.63 0 60.26 0 64 0 C64 13.86 64 27.72 64 42 C42.88 42 21.76 42 0 42 C0 28.14 0 14.28 0 0 Z " fill="#0BAD8F" transform="translate(0,22)"/>
<path d="M0 0 C4.6462429 2.26662207 7.25515117 5.121928 9 10 C9.87033857 15.64753029 9.33206706 19.27957167 6 24 C4.13615695 25.99870868 2.27364227 27.91715089 0.3125 29.8125 C-0.19861328 30.31458984 -0.70972656 30.81667969 -1.23632812 31.33398438 C-2.48634362 32.56063509 -3.7425468 33.78097491 -5 35 C-11.64648721 32.09216184 -17.84636028 25.43868109 -21 19 C-21.81980329 14.27759147 -21.49703924 10.97566963 -19.3125 6.6875 C-18.1678125 5.3571875 -18.1678125 5.3571875 -17 4 C-16.34 3.21625 -15.68 2.4325 -15 1.625 C-10.26917095 -0.9375324 -5.26397336 -0.77699607 0 0 Z " fill="#FC4A49" transform="translate(46,0)"/>
<path d="M0 0 C0 4.95 0 9.9 0 15 C2.64 15 5.28 15 8 15 C8 16.32 8 17.64 8 19 C5.36 19 2.72 19 0 19 C0 23.95 0 28.9 0 34 C-1.32 34 -2.64 34 -4 34 C-4 32.35 -4 30.7 -4 29 C-8.62 29 -13.24 29 -18 29 C-18 30.65 -18 32.3 -18 34 C-18.66 34 -19.32 34 -20 34 C-20 23.44 -20 12.88 -20 2 C-17.69 3.98 -15.38 5.96 -13 8 C-9.09010009 6.04505005 -7.29428361 4.37933833 -4.46484375 1.2421875 C-3 0 -3 0 0 0 Z " fill="#CBE7FA" transform="translate(52,26)"/>
<path d="M0 0 C4.66486007 -0.32545535 7.33650762 0.01136148 11 3 C14.45773836 7.6726194 15.44401401 11.01623983 15.43359375 16.7890625 C14.34357473 22.3471775 10.28775486 25.99654506 6.375 29.8125 C5.62089844 30.56563477 5.62089844 30.56563477 4.8515625 31.33398438 C1.14065689 35 1.14065689 35 0 35 C-0.13489391 32.73078464 -0.23193995 30.4592933 -0.3125 28.1875 C-0.37050781 26.92292969 -0.42851563 25.65835937 -0.48828125 24.35546875 C-0.32714844 23.24816406 -0.16601562 22.14085937 0 21 C2.48046875 19.26953125 2.48046875 19.26953125 5 18 C5.83333333 14.5 5.83333333 14.5 5 11 C4.175 10.525625 3.35 10.05125 2.5 9.5625 C1.675 9.046875 0.85 8.53125 0 8 C-0.47403622 5.21155165 -0.233723 2.85142057 0 0 Z " fill="#FE0520" transform="translate(40,0)"/>
<path d="M0 0 C2.97 0 5.94 0 9 0 C9 11.22 9 22.44 9 34 C6.03 34 3.06 34 0 34 C0 29.05 0 24.1 0 19 C2.64 19 5.28 19 8 19 C8 17.68 8 16.36 8 15 C5.36 15 2.72 15 0 15 C0 10.05 0 5.1 0 0 Z " fill="#0DD27F" transform="translate(52,26)"/>
<path d="M0 0 C3.63 0 7.26 0 11 0 C11 13.86 11 27.72 11 42 C0.44 42 -10.12 42 -21 42 C-21 41.01 -21 40.02 -21 39 C-11.76 38.67 -2.52 38.34 7 38 C7.33 26.78 7.66 15.56 8 4 C4.37 4 0.74 4 -3 4 C-2.01 2.68 -1.02 1.36 0 0 Z " fill="#008475" transform="translate(53,22)"/>
<path d="M0 0 C2.64 0 5.28 0 8 0 C8 7.92 8 15.84 8 24 C5.36 24 2.72 24 0 24 C0 16.08 0 8.16 0 0 Z " fill="#B0EEAE" transform="translate(4,36)"/>
<path d="M0 0 C7.89513514 -0.82486486 7.89513514 -0.82486486 10.7109375 1.27734375 C14.23687114 5.77138055 14.48922662 9.42281654 14 15 C9.38 15 4.76 15 0 15 C0 10.05 0 5.1 0 0 Z " fill="#B1EEAF" transform="translate(16,36)"/>
<path d="M0 0 C2.31 1.98 4.62 3.96 7 6 C11.37249616 3.9883595 11.37249616 3.9883595 16 0 C16 4.29 16 8.58 16 13 C13.52076199 13.02685095 11.0418116 13.04676547 8.5625 13.0625 C7.85544922 13.07087891 7.14839844 13.07925781 6.41992188 13.08789062 C4.61306441 13.09653588 2.80612397 13.05220011 1 13 C0 12 0 12 -0.09765625 9.27734375 C-0.08605469 8.17519531 -0.07445313 7.07304688 -0.0625 5.9375 C-0.05347656 4.83277344 -0.04445313 3.72804688 -0.03515625 2.58984375 C-0.02355469 1.73519531 -0.01195313 0.88054688 0 0 Z " fill="#02DA7A" transform="translate(32,28)"/>
<path d="M0 0 C2.9375 0.75 2.9375 0.75 4.9375 2.75 C5.480879 8.72716895 5.480879 8.72716895 3.875 11.75 C0.70953476 13.38378851 -1.71270286 12.60267564 -5.0625 11.75 C-7.0625 8.75 -7.0625 8.75 -6.875 5.1875 C-5.81721331 0.71224863 -4.63605151 -0.37845318 0 0 Z " fill="#FDBC74" transform="translate(41.0625,8.25)"/>
<path d="M0 0 C2.64 0 5.28 0 8 0 C8 4.62 8 9.24 8 14 C5.36 14 2.72 14 0 14 C0 9.38 0 4.76 0 0 Z " fill="#00DC7B" transform="translate(52,46)"/>
<path d="M0 0 C4.62 0 9.24 0 14 0 C14 1.98 14 3.96 14 6 C9.38 6 4.76 6 0 6 C0 4.02 0 2.04 0 0 Z " fill="#19DE8A" transform="translate(34,45)"/>
<path d="M0 0 C4.62 0 9.24 0 14 0 C14 1.65 14 3.3 14 5 C9.38 5 4.76 5 0 5 C0 3.35 0 1.7 0 0 Z " fill="#00DC7B" transform="translate(34,55)"/>
<path d="M0 0 C4.62 0 9.24 0 14 0 C14 1.65 14 3.3 14 5 C9.38 5 4.76 5 0 5 C0 3.35 0 1.7 0 0 Z " fill="#B0EEAE" transform="translate(16,55)"/>
<path d="M0 0 C0 3.63 0 7.26 0 11 C-1.65 10.67 -3.3 10.34 -5 10 C-6.34261242 3.53104925 -6.34261242 3.53104925 -4.75 1.0625 C-3 0 -3 0 0 0 Z " fill="#F3D2AB" transform="translate(40,9)"/>
<path d="M0 0 C2.64 0 5.28 0 8 0 C8 1.98 8 3.96 8 6 C5.36 6 2.72 6 0 6 C0 4.02 0 2.04 0 0 Z " fill="#A8EAAD" transform="translate(16,26)"/>
<path d="M0 0 C2.64 0 5.28 0 8 0 C8 1.98 8 3.96 8 6 C5.36 6 2.72 6 0 6 C0 4.02 0 2.04 0 0 Z " fill="#A8EAAD" transform="translate(4,26)"/>
<path d="M0 0 C1.32 0.33 2.64 0.66 4 1 C4 4.96 4 8.92 4 13 C1.78631706 10.78631706 0.13447079 9.06983375 -0.265625 5.88671875 C-0.25166986 3.92253213 -0.13286356 1.9597375 0 0 Z " fill="#ADECAE" transform="translate(28,26)"/>
</svg>
