<?xml version="1.0" encoding="UTF-8"?>
<svg version="1.1" xmlns="http://www.w3.org/2000/svg" width="64" height="64">
<path d="M0 0 C2.24834496 -0.13526139 4.49902514 -0.23210804 6.75 -0.3125 C8.00296875 -0.37050781 9.2559375 -0.42851563 10.546875 -0.48828125 C14 -0 14 -0 16.3984375 1.9765625 C18.50092473 5.94564815 18.73963954 9.25444482 18.875 13.6875 C18.92140625 14.45900391 18.9678125 15.23050781 19.015625 16.02539062 C19.1059775 18.01488328 19.06240017 20.00943455 19 22 C18.34 22.66 17.68 23.32 17 24 C16.01 24 15.02 24 14 24 C13.814375 25.670625 13.814375 25.670625 13.625 27.375 C13 31 13 31 11 33 C11 34.32 11 35.64 11 37 C12.49853516 37.52400391 12.49853516 37.52400391 14.02734375 38.05859375 C15.33078205 38.51807919 16.6341646 38.97772279 17.9375 39.4375 C18.59685547 39.66759766 19.25621094 39.89769531 19.93554688 40.13476562 C24.88671875 41.88671875 24.88671875 41.88671875 26 43 C26.08685603 44.56172745 26.10702219 46.12729344 26.09765625 47.69140625 C26.09515869 48.54162354 26.09266113 49.39184082 26.09008789 50.26782227 C26.08098389 51.35506592 26.07187988 52.44230957 26.0625 53.5625 C26.041875 57.006875 26.02125 60.45125 26 64 C13.46 64 0.92 64 -12 64 C-12.33 61.69 -12.66 59.38 -13 57 C-13.36351562 57.5053125 -13.72703125 58.010625 -14.1015625 58.53125 C-18.24516785 63.88606307 -18.24516785 63.88606307 -22.3125 64.5 C-25 64 -25 64 -26 63 C-26.04092937 60.66702567 -26.04241723 58.33294775 -26 56 C-26.66 56 -27.32 56 -28 56 C-28 52.04 -28 48.08 -28 44 C-27.01 44 -26.02 44 -25 44 C-25 42.02 -25 40.04 -25 38 C-23.68 38 -22.36 38 -21 38 C-20.01 43.445 -20.01 43.445 -19 49 C-18.21625 47.7625 -17.4325 46.525 -16.625 45.25 C-12.9948891 40.32840734 -8.72637109 38.72017472 -3 37 C-3.54723683 33.62537285 -4.0549 31.91765 -6 29 C-6.125 26.3125 -6.125 26.3125 -6 24 C-6.639375 23.855625 -7.27875 23.71125 -7.9375 23.5625 C-10 23 -10 23 -11 22 C-10.98816457 19.52047845 -10.90159228 17.09641349 -10.75 14.625 C-10.72292969 13.93921875 -10.69585938 13.2534375 -10.66796875 12.546875 C-10.49214184 9.63155135 -10.32689566 7.4766044 -8.65234375 5.03515625 C-6.14207261 3.46252776 -3.88352409 3.80776506 -1 4 C-0.67 2.68 -0.34 1.36 0 0 Z " fill="#3DA3F5" transform="translate(33,0)"/>
<path d="M0 0 C2.24834496 -0.13526139 4.49902514 -0.23210804 6.75 -0.3125 C8.00296875 -0.37050781 9.2559375 -0.42851563 10.546875 -0.48828125 C14 0 14 0 16.3984375 1.9765625 C18.50092473 5.94564815 18.73963954 9.25444482 18.875 13.6875 C18.92140625 14.45900391 18.9678125 15.23050781 19.015625 16.02539062 C19.1059775 18.01488328 19.06240017 20.00943455 19 22 C18.34 22.66 17.68 23.32 17 24 C16.01 24 15.02 24 14 24 C13.87625 25.11375 13.7525 26.2275 13.625 27.375 C13 31 13 31 11 33 C10.896875 33.78375 10.79375 34.5675 10.6875 35.375 C9.76284007 38.90551975 7.93303888 39.96943462 5 42 C-1.728 38.752 -1.728 38.752 -3.0625 35.0625 C-3.371875 34.051875 -3.68125 33.04125 -4 32 C-4.66 31.01 -5.32 30.02 -6 29 C-6.125 26.3125 -6.125 26.3125 -6 24 C-6.639375 23.855625 -7.27875 23.71125 -7.9375 23.5625 C-10 23 -10 23 -11 22 C-10.98816457 19.52047845 -10.90159228 17.09641349 -10.75 14.625 C-10.72292969 13.93921875 -10.69585938 13.2534375 -10.66796875 12.546875 C-10.49214184 9.63155135 -10.32689566 7.4766044 -8.65234375 5.03515625 C-6.14207261 3.46252776 -3.88352409 3.80776506 -1 4 C-0.67 2.68 -0.34 1.36 0 0 Z " fill="#F7E9D2" transform="translate(33,0)"/>
<path d="M0 0 C2.24834496 -0.13526139 4.49902514 -0.23210804 6.75 -0.3125 C8.00296875 -0.37050781 9.2559375 -0.42851563 10.546875 -0.48828125 C14 0 14 0 16.4375 2.15625 C18.20557385 5.37414441 18.42522045 7.17667558 18.25 10.8125 C18.21390625 11.78832031 18.1778125 12.76414062 18.140625 13.76953125 C18.07101563 14.87361328 18.07101563 14.87361328 18 16 C8.66666667 16 -0.66666667 16 -10 16 C-10.08131463 14.56344146 -10.13933559 13.1255517 -10.1875 11.6875 C-10.22230469 10.88699219 -10.25710937 10.08648437 -10.29296875 9.26171875 C-10 7 -10 7 -8.6875 5.21875 C-6.18004388 3.40780947 -4.00079974 3.79994668 -1 4 C-0.67 2.68 -0.34 1.36 0 0 Z " fill="#536D79" transform="translate(33,0)"/>
<path d="M0 0 C8.91 0 17.82 0 27 0 C27 2.64 27 5.28 27 8 C18.09 8 9.18 8 0 8 C0 5.36 0 2.72 0 0 Z " fill="#FFCA28" transform="translate(23,52)"/>
<path d="M0 0 C0.9075 0.00257812 1.815 0.00515625 2.75 0.0078125 C4.11125 0.00394531 4.11125 0.00394531 5.5 0 C7.75 0.1328125 7.75 0.1328125 8.75 1.1328125 C9.11960994 2.58237647 9.44659993 4.04295905 9.75 5.5078125 C10.29881592 8.14041387 10.89727462 10.57463635 11.75 13.1328125 C10.76 13.6278125 10.76 13.6278125 9.75 14.1328125 C9.42 15.1228125 9.09 16.1128125 8.75 17.1328125 C4.79 17.1328125 0.83 17.1328125 -3.25 17.1328125 C-3.27684679 14.48691236 -3.29676357 11.84128154 -3.3125 9.1953125 C-3.32087891 8.44056641 -3.32925781 7.68582031 -3.33789062 6.90820312 C-3.34652441 4.98286937 -3.30224333 3.05745669 -3.25 1.1328125 C-2.25 0.1328125 -2.25 0.1328125 0 0 Z " fill="#75CC77" transform="translate(8.25,14.8671875)"/>
<path d="M0 0 C0.66 0.33 1.32 0.66 2 1 C1.34 1.66 0.68 2.32 0 3 C-0.28195986 5.79601462 -0.28195986 5.79601462 -0.1875 8.9375 C-0.18105469 9.99839844 -0.17460937 11.05929688 -0.16796875 12.15234375 C-0.11931169 15.07509523 -0.11931169 15.07509523 1 18 C2.45817797 18.16802051 3.9165484 18.33437143 5.375 18.5 C6.59316406 18.63921875 6.59316406 18.63921875 7.8359375 18.78125 C9.96912825 19.03352351 9.96912825 19.03352351 12 19 C12.3125 21.25 12.3125 21.25 12 24 C9.5 26.3125 9.5 26.3125 7 28 C0.272 24.752 0.272 24.752 -1.0625 21.0625 C-1.371875 20.051875 -1.68125 19.04125 -2 18 C-2.66 17.01 -3.32 16.02 -4 15 C-4.125 12.3125 -4.125 12.3125 -4 10 C-4.639375 9.855625 -5.27875 9.71125 -5.9375 9.5625 C-8 9 -8 9 -9 8 C-9.125 5.5 -9.125 5.5 -9 3 C-7.06729418 1.06729418 -3.61358612 1.37336945 -1 1 C-0.67 0.67 -0.34 0.34 0 0 Z " fill="#FDE6C6" transform="translate(31,14)"/>
<path d="M0 0 C1.32 0.33 2.64 0.66 4 1 C3.34 1 2.68 1 2 1 C2 5.62 2 10.24 2 15 C2.66 15.33 3.32 15.66 4 16 C3.030625 15.814375 2.06125 15.62875 1.0625 15.4375 C0.051875 15.293125 -0.95875 15.14875 -2 15 C-2.33 15.33 -2.66 15.66 -3 16 C-5.33297433 16.04092937 -7.66705225 16.04241723 -10 16 C-10.08131463 14.56344146 -10.13933559 13.1255517 -10.1875 11.6875 C-10.22230469 10.88699219 -10.25710937 10.08648437 -10.29296875 9.26171875 C-10 7 -10 7 -8.6875 5.21875 C-6.18004388 3.40780947 -4.00079974 3.79994668 -1 4 C-0.67 2.68 -0.34 1.36 0 0 Z " fill="#556E79" transform="translate(33,0)"/>
<path d="M0 0 C0.99 0.33 1.98 0.66 3 1 C4.21293283 6.60981434 4.33111384 12.28341698 4 18 C3 19 3 19 -0.5625 19.0625 C-1.696875 19.041875 -2.83125 19.02125 -4 19 C-4 15.04 -4 11.08 -4 7 C-3.01 7 -2.02 7 -1 7 C-1.020625 6.030625 -1.04125 5.06125 -1.0625 4.0625 C-1 1 -1 1 0 0 Z " fill="#FEECD1" transform="translate(9,37)"/>
<path d="M0 0 C3.96 0 7.92 0 12 0 C12 1.65 12 3.3 12 5 C9.5 7.3125 9.5 7.3125 7 9 C4.50638429 7.79618552 2.31856917 6.54571278 0 5 C0 3.35 0 1.7 0 0 Z " fill="#F7CCA1" transform="translate(31,33)"/>
<path d="M0 0 C0.66 0.66 1.32 1.32 2 2 C1.443125 2.17273437 0.88625 2.34546875 0.3125 2.5234375 C-6.19576895 4.92006356 -9.36745495 8.35611884 -13.37109375 13.953125 C-13.90863281 14.62859375 -14.44617188 15.3040625 -15 16 C-15.66 16 -16.32 16 -17 16 C-16.01852515 11.05954235 -13.59483785 7.48763593 -10 4 C-6.77214717 2.26821607 -3.50373113 1.05250421 0 0 Z " fill="#1299FA" transform="translate(30,37)"/>
<path d="M0 0 C0.99 0.33 1.98 0.66 3 1 C3 2.98 3 4.96 3 7 C4.65 7 6.3 7 8 7 C7.67 8.65 7.34 10.3 7 12 C4.69 12 2.38 12 0 12 C0 8.04 0 4.08 0 0 Z " fill="#FDE6C7" transform="translate(5,44)"/>
<path d="M0 0 C2.0625 0.4375 2.0625 0.4375 4 1 C3.34 1 2.68 1 2 1 C2 5.62 2 10.24 2 15 C2.66 15.33 3.32 15.66 4 16 C2.0625 15.625 2.0625 15.625 0 15 C-1.37252731 12.25494537 -1.13229255 9.99672588 -1.125 6.9375 C-1.12757812 5.85339844 -1.13015625 4.76929688 -1.1328125 3.65234375 C-1 1 -1 1 0 0 Z " fill="#465B64" transform="translate(33,0)"/>
<path d="M0 0 C0.598125 0.226875 1.19625 0.45375 1.8125 0.6875 C0.8225 1.1825 0.8225 1.1825 -0.1875 1.6875 C-0.87681344 4.03657875 -0.87681344 4.03657875 -1.3125 6.75 C-1.48007812 7.66910156 -1.64765625 8.58820312 -1.8203125 9.53515625 C-1.94148438 10.24542969 -2.06265625 10.95570312 -2.1875 11.6875 C-3.1775 11.6875 -4.1675 11.6875 -5.1875 11.6875 C-5.26881463 10.25094146 -5.32683559 8.8130517 -5.375 7.375 C-5.40980469 6.57449219 -5.44460937 5.77398437 -5.48046875 4.94921875 C-5.1875 2.6875 -5.1875 2.6875 -3.8125 0.875 C-2.1875 -0.3125 -2.1875 -0.3125 0 0 Z " fill="#445962" transform="translate(28.1875,4.3125)"/>
<path d="M0 0 C2.475 0.495 2.475 0.495 5 1 C5.125 3.375 5.125 3.375 5 6 C4.34 6.66 3.68 7.32 3 8 C2.01 8 1.02 8 0 8 C0 5.36 0 2.72 0 0 Z " fill="#FED1A4" transform="translate(47,16)"/>
<path d="M0 0 C1.32 0 2.64 0 4 0 C4 2.64 4 5.28 4 8 C0.125 7.125 0.125 7.125 -1 6 C-1.125 3.5 -1.125 3.5 -1 1 C-0.67 0.67 -0.34 0.34 0 0 Z " fill="#FED1A3" transform="translate(23,16)"/>
<path d="M0 0 C0.99 0.33 1.98 0.66 3 1 C3 2.98 3 4.96 3 7 C1.68 7 0.36 7 -1 7 C-1.04254356 5.00045254 -1.04080783 2.99958364 -1 1 C-0.67 0.67 -0.34 0.34 0 0 Z " fill="#FEC795" transform="translate(9,37)"/>
<path d="M0 0 C0.99 0 1.98 0 3 0 C3 2.31 3 4.62 3 7 C3.66 7.33 4.32 7.66 5 8 C3.35 7.67 1.7 7.34 0 7 C0 4.69 0 2.38 0 0 Z " fill="#1096FA" transform="translate(7,56)"/>
<path d="M0 0 C0.66 0 1.32 0 2 0 C0.95125002 2.62187494 0.35068687 3.79371361 -2.125 5.25 C-2.74375 5.4975 -3.3625 5.745 -4 6 C-4.66 4.68 -5.32 3.36 -6 2 C-4.7934375 1.7834375 -4.7934375 1.7834375 -3.5625 1.5625 C-1.07896294 1.25864751 -1.07896294 1.25864751 0 0 Z " fill="#D7EFE8" transform="translate(13,21)"/>
</svg>
