<?xml version="1.0" encoding="UTF-8"?>
<svg version="1.1" xmlns="http://www.w3.org/2000/svg" width="64" height="64">
<path d="M0 0 C1.23556641 0.01740234 1.23556641 0.01740234 2.49609375 0.03515625 C3.32238281 0.04417969 4.14867187 0.05320313 5 0.0625 C5.63808594 0.07410156 6.27617187 0.08570313 6.93359375 0.09765625 C6.93359375 0.75765625 6.93359375 1.41765625 6.93359375 2.09765625 C7.59359375 1.76765625 8.25359375 1.43765625 8.93359375 1.09765625 C15.03445701 0.61806371 20.07942774 1.32049871 25.93359375 3.09765625 C28.4898575 3.35208997 31.03580613 3.5309926 33.6015625 3.65625 C36.37462114 4.1811338 37.81767902 5.27359183 39.93359375 7.09765625 C40.79984375 6.60265625 41.66609375 6.10765625 42.55859375 5.59765625 C46.04108998 4.04988015 48.18118833 3.82962729 51.93359375 4.09765625 C51.93359375 8.09765625 51.93359375 8.09765625 50.62011719 9.43798828 C50.0171582 9.82325684 49.41419922 10.20852539 48.79296875 10.60546875 C48.13425781 11.03472656 47.47554687 11.46398438 46.796875 11.90625 C46.09949219 12.34066406 45.40210938 12.77507813 44.68359375 13.22265625 C44.00167969 13.66480469 43.31976563 14.10695313 42.6171875 14.5625 C34.58778556 19.72314474 29.15128948 21.39687625 19.53125 19.38671875 C17.28634807 18.83622536 15.04730117 18.26101067 12.81640625 17.65625 C10.02156617 17.1147024 8.56824072 17.13671013 5.93359375 18.09765625 C5.93359375 18.75765625 5.93359375 19.41765625 5.93359375 20.09765625 C2.96359375 20.09765625 -0.00640625 20.09765625 -3.06640625 20.09765625 C-3.09324322 16.95176681 -3.11316527 13.80610354 -3.12890625 10.66015625 C-3.13728516 9.76232422 -3.14566406 8.86449219 -3.15429688 7.93945312 C-3.15751953 7.08544922 -3.16074219 6.23144531 -3.1640625 5.3515625 C-3.17191772 4.16542358 -3.17191772 4.16542358 -3.17993164 2.95532227 C-3.01709908 0.29082128 -2.66195378 0.12580122 0 0 Z " fill="#F5C9A5" transform="translate(7.06640625,43.90234375)"/>
<path d="M0 0 C4.39472055 3.06608411 6.66894968 6.56439397 7.625 11.8125 C7.9557817 16.1457403 6.89579292 19.09953146 4.6875 22.875 C1.02022182 26.79813479 -2.00720091 28.66458937 -7.296875 29.0078125 C-12.21705862 28.68361435 -15.5560115 26.53281608 -19.1875 23.375 C-22.49461935 19.48427135 -22.6615549 16.06448 -22.58984375 11.15625 C-21.9973301 6.28261657 -19.15911748 3.62317359 -15.625 0.5 C-10.21963575 -2.15168812 -5.64281776 -1.91642867 0 0 Z " fill="#FADA43" transform="translate(40.3125,16.125)"/>
<path d="M0 0 C2.97 0 5.94 0 9 0 C8.67 6.6 8.34 13.2 8 20 C5.03 20 2.06 20 -1 20 C-1.02683697 16.85411056 -1.04675902 13.70844729 -1.0625 10.5625 C-1.07087891 9.66466797 -1.07925781 8.76683594 -1.08789062 7.84179688 C-1.09111328 6.98779297 -1.09433594 6.13378906 -1.09765625 5.25390625 C-1.10551147 4.06776733 -1.10551147 4.06776733 -1.11352539 2.85766602 C-1 1 -1 1 0 0 Z " fill="#00EFD0" transform="translate(5,44)"/>
<path d="M0 0 C2.58886746 0.25412196 5.16740061 0.43352394 7.765625 0.55859375 C10.50822157 1.10040042 11.43513207 1.68826329 13 4 C13 5.65 13 7.3 13 9 C8.38 9 3.76 9 -1 9 C-1.33 8.34 -1.66 7.68 -2 7 C3.94 6.505 3.94 6.505 10 6 C7.25893649 3.25893649 5.44778934 3.67181076 1.625 3.5 C-2.54450756 3.31176038 -5.34745796 2.98010379 -9 1 C-12.71816101 0.80430732 -15.46029282 0.82009761 -19 2 C-19 1.01 -19 0.02 -19 -1 C-13.21692871 -3.89153565 -5.81578858 -1.76550725 0 0 Z " fill="#EDB289" transform="translate(33,47)"/>
<path d="M0 0 C0.66 0 1.32 0 2 0 C4.29648649 2.5614657 5 3.47967572 5 7 C4.34 7 3.68 7 3 7 C2.67 6.34 2.34 5.68 2 5 C1.01 5 0.02 5 -1 5 C-0.67 5.99 -0.34 6.98 0 8 C2.50447516 9.21869929 2.50447516 9.21869929 5 10 C5 11.98 5 13.96 5 16 C4.01 16.33 3.02 16.66 2 17 C2 17.66 2 18.32 2 19 C1.01 19 0.02 19 -1 19 C-3.35723489 16.46815512 -4 15.52809907 -4 12 C-3.34 12 -2.68 12 -2 12 C-1.67 12.66 -1.34 13.32 -1 14 C1.02463255 14.65213292 1.02463255 14.65213292 3 15 C3 13.68 3 12.36 3 11 C2.21625 10.87625 1.4325 10.7525 0.625 10.625 C-2 10 -2 10 -4 8 C-3.625 5.375 -3.625 5.375 -3 3 C-2.01 2.67 -1.02 2.34 0 2 C0 1.34 0 0.68 0 0 Z " fill="#1EB1D5" transform="translate(32,20)"/>
<path d="M0 0 C0.99 0 1.98 0 3 0 C3 4.29 3 8.58 3 13 C2.01 12.67 1.02 12.34 0 12 C0 8.04 0 4.08 0 0 Z " fill="#00ACEA" transform="translate(31,0)"/>
<path d="M0 0 C0.66 0 1.32 0 2 0 C2.33 0.66 2.66 1.32 3 2 C4.98 2 6.96 2 9 2 C8.67 2.99 8.34 3.98 8 5 C7.34 5 6.68 5 6 5 C6 5.66 6 6.32 6 7 C5.01 7 4.02 7 3 7 C0.64276511 4.46815512 0 3.52809907 0 0 Z " fill="#2AB3CE" transform="translate(28,32)"/>
<path d="M0 0 C0.99 0 1.98 0 3 0 C3 2.64 3 5.28 3 8 C2.01 7.67 1.02 7.34 0 7 C0 4.69 0 2.38 0 0 Z " fill="#00ACEA" transform="translate(39,5)"/>
<path d="M0 0 C0.99 0 1.98 0 3 0 C3 2.64 3 5.28 3 8 C2.01 7.67 1.02 7.34 0 7 C0 4.69 0 2.38 0 0 Z " fill="#00ABE9" transform="translate(23,5)"/>
<path d="M0 0 C1.32 0 2.64 0 4 0 C4 1.32 4 2.64 4 4 C2.35 3.67 0.7 3.34 -1 3 C-0.67 2.01 -0.34 1.02 0 0 Z " fill="#EAD74E" transform="translate(31,31)"/>
</svg>
