<?xml version="1.0" encoding="UTF-8"?>
<svg version="1.1" xmlns="http://www.w3.org/2000/svg" width="64" height="64">
<path d="M0 0 C15.18 0 30.36 0 46 0 C46 3.63 46 7.26 46 11 C47.19496094 10.89558594 47.19496094 10.89558594 48.4140625 10.7890625 C49.47367188 10.73492187 50.53328125 10.68078125 51.625 10.625 C52.66914062 10.55539063 53.71328125 10.48578125 54.7890625 10.4140625 C58.61382193 11.1120113 60.29002403 12.17030255 62.86181641 15.02587891 C65.09699932 18.90268909 64.61663054 23.03184589 64.375 27.375 C64.33439453 28.76525391 64.33439453 28.76525391 64.29296875 30.18359375 C64.22262115 32.4581663 64.12428347 34.72784319 64 37 C62.68 37 61.36 37 60 37 C59.814375 37.9590625 59.814375 37.9590625 59.625 38.9375 C59.41875 39.618125 59.2125 40.29875 59 41 C56.17116253 42.41441874 54.12623255 42.31900332 51 42 C50.5877417 41.34612305 50.1754834 40.69224609 49.75073242 40.01855469 C48.08592115 37.6681808 48.08592115 37.6681808 44.8137207 37.45410156 C43.53070068 37.4331543 42.24768066 37.41220703 40.92578125 37.390625 C39.90003242 37.36582062 39.90003242 37.36582062 38.8535614 37.34051514 C36.67311664 37.2919968 34.4933693 37.27065809 32.3125 37.25 C30.83264713 37.22184315 29.3528268 37.1919161 27.87304688 37.16015625 C24.24885017 37.08624013 20.62478626 37.03668748 17 37 C16.87625 37.639375 16.7525 38.27875 16.625 38.9375 C16.315625 39.9584375 16.315625 39.9584375 16 41 C13.17116253 42.41441874 11.12623255 42.31900332 8 42 C6.95374591 40.70264493 5.95298777 39.36733028 5 38 C3.35 37.67 1.7 37.34 0 37 C0 24.79 0 12.58 0 0 Z " fill="#FEC271" transform="translate(0,11)"/>
<path d="M0 0 C2.784375 -0.185625 2.784375 -0.185625 5.625 -0.375 C6.66914062 -0.44460937 7.71328125 -0.51421875 8.7890625 -0.5859375 C12.61382193 0.1120113 14.29002403 1.17030255 16.86181641 4.02587891 C19.09699932 7.90268909 18.61663054 12.03184589 18.375 16.375 C18.33439453 17.76525391 18.33439453 17.76525391 18.29296875 19.18359375 C18.22262115 21.4581663 18.12428347 23.72784319 18 26 C16.68 26 15.36 26 14 26 C13.814375 26.9590625 13.814375 26.9590625 13.625 27.9375 C13.41875 28.618125 13.2125 29.29875 13 30 C10.17116253 31.41441874 8.12623255 31.31900332 5 31 C4.5877417 30.34612305 4.1754834 29.69224609 3.75073242 29.01855469 C2.08592115 26.6681808 2.08592115 26.6681808 -1.1862793 26.45410156 C-3.11080933 26.42268066 -3.11080933 26.42268066 -5.07421875 26.390625 C-5.7580513 26.37408875 -6.44188385 26.35755249 -7.1464386 26.34051514 C-9.32688336 26.2919968 -11.5066307 26.27065809 -13.6875 26.25 C-15.16735287 26.22184315 -16.6471732 26.1919161 -18.12695312 26.16015625 C-21.75114983 26.08624013 -25.37521374 26.03668748 -29 26 C-29.12375 26.639375 -29.2475 27.27875 -29.375 27.9375 C-29.684375 28.9584375 -29.684375 28.9584375 -30 30 C-32.82883747 31.41441874 -34.87376745 31.31900332 -38 31 C-39.04625409 29.70264493 -40.04701223 28.36733028 -41 27 C-43.59855733 26.1957792 -43.59855733 26.1957792 -46 26 C-46 24.68 -46 23.36 -46 22 C-44.865625 21.855625 -43.73125 21.71125 -42.5625 21.5625 C-39.19222799 21.38828522 -39.19222799 21.38828522 -38 20 C-35 19.875 -35 19.875 -32 20 C-31.67 20.33 -31.34 20.66 -31 21 C-28.71011219 21.15888092 -26.41556559 21.25138073 -24.12109375 21.31640625 C-23.4344313 21.33718735 -22.74776886 21.35796844 -22.04029846 21.37937927 C-19.83947065 21.44494143 -17.63852025 21.50379015 -15.4375 21.5625 C-13.94855486 21.60567892 -12.45962227 21.649293 -10.97070312 21.69335938 C-7.31392608 21.8014515 -3.65706053 21.90047374 0 22 C0 14.74 0 7.48 0 0 Z " fill="#60ABED" transform="translate(46,22)"/>
<path d="M0 0 C1.37083539 -0.16450025 2.74763396 -0.27953899 4.125 -0.375 C5.27355469 -0.47941406 5.27355469 -0.47941406 6.4453125 -0.5859375 C9.79452345 0.18223015 11.49236611 1.52258184 13.80908203 4.02587891 C16.13128488 7.87527052 15.61726314 12.0204754 15.375 16.375 C15.34792969 17.30183594 15.32085937 18.22867188 15.29296875 19.18359375 C15.22262115 21.4581663 15.12428347 23.72784319 15 26 C13.68 26 12.36 26 11 26 C7.73795206 22.1554435 7.71144715 18.9053984 8 14 C5.36 14 2.72 14 0 14 C0 10.7 0 7.4 0 4 C0.99 3.67 1.98 3.34 3 3 C2.01 2.01 1.02 1.02 0 0 Z " fill="#3B9BEA" transform="translate(49,22)"/>
<path d="M0 0 C2.64 0 5.28 0 8 0 C8 10.89 8 21.78 8 33 C5.36 33 2.72 33 0 33 C0 31.68 0 30.36 0 29 C0.99 29 1.98 29 3 29 C3 28.34 3 27.68 3 27 C2.01 27 1.02 27 0 27 C0 26.01 0 25.02 0 24 C0.99 24 1.98 24 3 24 C3 23.01 3 22.02 3 21 C2.01 21 1.02 21 0 21 C0 14.07 0 7.14 0 0 Z " fill="#EBA75C" transform="translate(38,11)"/>
<path d="M0 0 C3.63 0 7.26 0 11 0 C11 3.96 11 7.92 11 12 C7.37 12 3.74 12 0 12 C0 8.04 0 4.08 0 0 Z " fill="#FF514D" transform="translate(17,11)"/>
<path d="M0 0 C3.125 0.25 3.125 0.25 5.0625 1.3125 C6.77287795 4.43142449 5.93013863 6.90557801 5.125 10.25 C2.29616253 11.66441874 0.25123255 11.56900332 -2.875 11.25 C-3.92125409 9.95264493 -4.92201223 8.61733028 -5.875 7.25 C-8.47355733 6.4457792 -8.47355733 6.4457792 -10.875 6.25 C-10.875 4.93 -10.875 3.61 -10.875 2.25 C-9.740625 2.105625 -8.60625 1.96125 -7.4375 1.8125 C-3.97118262 1.26518673 -3.3131294 0.28809821 0 0 Z " fill="#507390" transform="translate(10.875,41.75)"/>
<path d="M0 0 C3.125 0.25 3.125 0.25 5.0625 1.3125 C6.77287795 4.43142449 5.93013863 6.90557801 5.125 10.25 C2.26379744 11.68060128 0.28489415 11.63692581 -2.875 11.25 C-4.875 9.0625 -4.875 9.0625 -5.875 6.25 C-4.27176113 0.37145749 -4.27176113 0.37145749 0 0 Z " fill="#4F7491" transform="translate(53.875,41.75)"/>
<path d="M0 0 C6.27586207 -0.48275862 6.27586207 -0.48275862 9.4375 1.625 C11.39644605 4.602598 11.31785906 6.50355037 11 10 C7.37 10 3.74 10 0 10 C0 6.7 0 3.4 0 0 Z " fill="#34D4DE" transform="translate(49,26)"/>
<path d="M0 0 C9.24 0 18.48 0 28 0 C28 0.99 28 1.98 28 3 C18.76 3 9.52 3 0 3 C0 2.01 0 1.02 0 0 Z " fill="#399AEA" transform="translate(17,45)"/>
<path d="M0 0 C1.98 0 3.96 0 6 0 C6 1.32 6 2.64 6 4 C4.02 4 2.04 4 0 4 C0 2.68 0 1.36 0 0 Z " fill="#429AE1" transform="translate(0,44)"/>
</svg>
