<?xml version="1.0" encoding="UTF-8"?>
<svg version="1.1" xmlns="http://www.w3.org/2000/svg" width="64" height="64">
<path d="M0 0 C2.01822917 0.06510417 4.03645833 0.13020833 6.0546875 0.1953125 C6.7146875 1.5153125 7.3746875 2.8353125 8.0546875 4.1953125 C14.6546875 4.1953125 21.2546875 4.1953125 28.0546875 4.1953125 C28.7146875 2.8753125 29.3746875 1.5553125 30.0546875 0.1953125 C36.109375 0 36.109375 0 38.0546875 0.1953125 C40.0546875 2.1953125 40.0546875 2.1953125 40.3203125 4.0703125 C40.31515625 4.7715625 40.31 5.4728125 40.3046875 6.1953125 C40.31242187 7.2471875 40.31242187 7.2471875 40.3203125 8.3203125 C40.0546875 10.1953125 40.0546875 10.1953125 38.0546875 12.1953125 C35.36629365 12.46523156 32.76326814 12.28268607 30.0546875 12.1953125 C29.3946875 10.8753125 28.7346875 9.5553125 28.0546875 8.1953125 C21.4546875 8.1953125 14.8546875 8.1953125 8.0546875 8.1953125 C7.3946875 9.5153125 6.7346875 10.8353125 6.0546875 12.1953125 C5.3946875 12.1953125 4.7346875 12.1953125 4.0546875 12.1953125 C4.0546875 14.1753125 4.0546875 16.1553125 4.0546875 18.1953125 C7.3546875 18.1953125 10.6546875 18.1953125 14.0546875 18.1953125 C14.7146875 16.8753125 15.3746875 15.5553125 16.0546875 14.1953125 C18.6946875 14.1953125 21.3346875 14.1953125 24.0546875 14.1953125 C24.7146875 15.5153125 25.3746875 16.8353125 26.0546875 18.1953125 C30.6746875 18.1953125 35.2946875 18.1953125 40.0546875 18.1953125 C40.7146875 16.8753125 41.3746875 15.5553125 42.0546875 14.1953125 C48.109375 14 48.109375 14 50.0546875 14.1953125 C52.0546875 16.1953125 52.0546875 16.1953125 52.25 18.140625 C52.18489583 20.15885417 52.11979167 22.17708333 52.0546875 24.1953125 C50.0746875 25.1853125 50.0746875 25.1853125 48.0546875 26.1953125 C48.0546875 32.7953125 48.0546875 39.3953125 48.0546875 46.1953125 C46.0746875 46.1953125 44.0946875 46.1953125 42.0546875 46.1953125 C42.0546875 44.8753125 42.0546875 43.5553125 42.0546875 42.1953125 C42.7146875 42.1953125 43.3746875 42.1953125 44.0546875 42.1953125 C44.0546875 36.9153125 44.0546875 31.6353125 44.0546875 26.1953125 C42.7346875 25.5353125 41.4146875 24.8753125 40.0546875 24.1953125 C40.0546875 23.5353125 40.0546875 22.8753125 40.0546875 22.1953125 C35.4346875 22.1953125 30.8146875 22.1953125 26.0546875 22.1953125 C25.3946875 23.5153125 24.7346875 24.8353125 24.0546875 26.1953125 C21.4146875 26.1953125 18.7746875 26.1953125 16.0546875 26.1953125 C15.3946875 24.8753125 14.7346875 23.5553125 14.0546875 22.1953125 C9.4346875 22.1953125 4.8146875 22.1953125 0.0546875 22.1953125 C0.0546875 18.8953125 0.0546875 15.5953125 0.0546875 12.1953125 C-1.2653125 11.5353125 -2.5853125 10.8753125 -3.9453125 10.1953125 C-4.140625 4.140625 -4.140625 4.140625 -3.9453125 2.1953125 C-1.9453125 0.1953125 -1.9453125 0.1953125 0 0 Z " fill="#000000" transform="translate(7.9453125,3.8046875)"/>
<path d="M0 0 C9.9 0 19.8 0 30 0 C30.020625 3.073125 30.04125 6.14625 30.0625 9.3125 C30.071604 10.27712158 30.08070801 11.24174316 30.09008789 12.2355957 C30.09258545 12.99960693 30.09508301 13.76361816 30.09765625 14.55078125 C30.10551147 15.72120972 30.10551147 15.72120972 30.11352539 16.9152832 C30 19 30 19 29 22 C24.38 22 19.76 22 15 22 C14.34 20.68 13.68 19.36 13 18 C11.02 18 9.04 18 7 18 C6.34 19.32 5.68 20.64 5 22 C3.35 22 1.7 22 0 22 C0 14.74 0 7.48 0 0 Z " fill="#000000" transform="translate(4,34)"/>
<path d="M0 0 C3.96 0 7.92 0 12 0 C12 3.3 12 6.6 12 10 C10.35 10 8.7 10 7 10 C6.6596875 9.0409375 6.6596875 9.0409375 6.3125 8.0625 C5.14749104 5.72806339 5.14749104 5.72806339 2.375 5.25 C1.59125 5.1675 0.8075 5.085 0 5 C0 3.35 0 1.7 0 0 Z " fill="#000000" transform="translate(36,46)"/>
<path d="M0 0 C3.03333605 -0.22893102 5.97366814 -0.35414522 9 0 C11.0625 1.875 11.0625 1.875 12 4 C12 4.66 12 5.32 12 6 C8.04 6 4.08 6 0 6 C0 4.02 0 2.04 0 0 Z " fill="#000000" transform="translate(36,38)"/>
<path d="M0 0 C3 0.125 3 0.125 4 1.125 C4.125 4.125 4.125 4.125 4 7.125 C3 8.125 3 8.125 0 8.25 C-3 8.125 -3 8.125 -4 7.125 C-4.125 4.125 -4.125 4.125 -4 1.125 C-3 0.125 -3 0.125 0 0 Z " fill="#000000" transform="translate(38,51.875)"/>
<path d="M0 0 C3 0.125 3 0.125 4 1.125 C4.125 4.125 4.125 4.125 4 7.125 C3 8.125 3 8.125 0 8.25 C-3 8.125 -3 8.125 -4 7.125 C-4.125 4.125 -4.125 4.125 -4 1.125 C-3 0.125 -3 0.125 0 0 Z " fill="#000000" transform="translate(14,51.875)"/>
</svg>
