<?xml version="1.0" standalone="no"?>
<!DOCTYPE svg PUBLIC "-//W3C//DTD SVG 20010904//EN"
 "http://www.w3.org/TR/2001/REC-SVG-20010904/DTD/svg10.dtd">
<svg version="1.0" xmlns="http://www.w3.org/2000/svg"
 width="64.000000pt" height="64.000000pt" viewBox="0 0 64.000000 64.000000"
 preserveAspectRatio="xMidYMid meet">

<g transform="translate(0.000000,64.000000) scale(0.100000,-0.100000)"
fill="#000000" stroke="none">
<path d="M183 532 l-133 -67 48 -27 47 -26 134 70 134 71 -44 23 c-24 13 -46
23 -49 23 -3 0 -65 -30 -137 -67z"/>
<path d="M356 441 l-130 -69 47 -23 48 -23 137 68 137 68 -45 24 c-25 13 -49
23 -55 23 -5 0 -68 -31 -139 -68z"/>
<path d="M40 312 l0 -137 135 -68 135 -67 0 138 0 138 -45 22 -45 22 0 -52 0
-51 -23 21 c-13 12 -31 22 -40 22 -14 0 -17 10 -17 50 0 50 0 50 -50 75 l-50
25 0 -138z"/>
<path d="M463 382 l-133 -67 0 -137 0 -138 135 67 135 68 0 137 c0 76 -1 138
-2 137 -2 0 -63 -30 -135 -67z"/>
</g>
</svg>
