<?xml version="1.0" encoding="UTF-8"?>
<svg version="1.1" xmlns="http://www.w3.org/2000/svg" width="64" height="64">
<path d="M0 0 C3.125 -0.1875 3.125 -0.1875 6 0 C6.66 1.32 7.32 2.64 8 4 C10.64 4 13.28 4 16 4 C16 4.66 16 5.32 16 6 C18.97 6 21.94 6 25 6 C26.25248502 8.50497004 26.11374406 10.20853274 26.09765625 13.0078125 C26.09443359 13.99394531 26.09121094 14.98007813 26.08789062 15.99609375 C26.07532227 17.54490234 26.07532227 17.54490234 26.0625 19.125 C26.05798828 20.16527344 26.05347656 21.20554687 26.04882812 22.27734375 C26.03701952 24.85161962 26.02055075 27.42578146 26 30 C27.65 30 29.3 30 31 30 C29.84826645 32.46800047 28.95216435 34.04783565 27 36 C26.62731113 38.91188245 26.62731113 38.91188245 26.5859375 42.3203125 C26.55032715 43.45227051 26.5147168 44.58422852 26.47802734 45.75048828 C26.44402832 47.19407715 26.4100293 48.63766602 26.375 50.125 C26.189375 56.993125 26.189375 56.993125 26 64 C10.82 64 -4.36 64 -20 64 C-20.25 50.25 -20.25 50.25 -20.29785156 45.93066406 C-20.3284668 44.80370117 -20.35908203 43.67673828 -20.390625 42.515625 C-20.41157227 41.36352539 -20.43251953 40.21142578 -20.45410156 39.02441406 C-21.10468831 35.42000056 -22.30100753 34.36312979 -25 32 C-25 31.34 -25 30.68 -25 30 C-23.02 30 -21.04 30 -19 30 C-19.00523682 29.30849854 -19.01047363 28.61699707 -19.01586914 27.90454102 C-19.036575 24.79053648 -19.04963963 21.67654639 -19.0625 18.5625 C-19.07087891 17.47388672 -19.07925781 16.38527344 -19.08789062 15.26367188 C-19.09111328 14.22919922 -19.09433594 13.19472656 -19.09765625 12.12890625 C-19.10289307 11.17056885 -19.10812988 10.21223145 -19.11352539 9.22485352 C-19 7 -19 7 -18 6 C-16.48071962 5.92820036 -14.95832518 5.91607993 -13.4375 5.9375 C-12.61121094 5.94652344 -11.78492188 5.95554687 -10.93359375 5.96484375 C-10.29550781 5.97644531 -9.65742188 5.98804688 -9 6 C-9 5.34 -9 4.68 -9 4 C-7.88625 3.896875 -6.7725 3.79375 -5.625 3.6875 C-4.42875 3.460625 -3.2325 3.23375 -2 3 C-1.34 2.01 -0.68 1.02 0 0 Z " fill="#FEB237" transform="translate(29,0)"/>
<path d="M0 0 C3.125 -0.1875 3.125 -0.1875 6 0 C6.66 1.32 7.32 2.64 8 4 C10.64 4 13.28 4 16 4 C16 4.66 16 5.32 16 6 C18.97 6 21.94 6 25 6 C26.25248502 8.50497004 26.11374406 10.20853274 26.09765625 13.0078125 C26.09443359 13.99394531 26.09121094 14.98007813 26.08789062 15.99609375 C26.07532227 17.54490234 26.07532227 17.54490234 26.0625 19.125 C26.05798828 20.16527344 26.05347656 21.20554687 26.04882812 22.27734375 C26.03701952 24.85161962 26.02055075 27.42578146 26 30 C24.69804688 30.01417969 23.39609375 30.02835938 22.0546875 30.04296875 C20.32809034 30.08988715 18.60152893 30.13813444 16.875 30.1875 C15.59109375 30.19620117 15.59109375 30.19620117 14.28125 30.20507812 C8.13552943 30.41781461 5.30447616 31.57556303 1 36 C0.33613281 35.19175781 -0.32773437 34.38351563 -1.01171875 33.55078125 C-4.6081031 30.48092638 -7.28179415 30.22652043 -11.8125 30.1875 C-12.50537109 30.16236328 -13.19824219 30.13722656 -13.91210938 30.11132812 C-15.60747122 30.05286737 -17.30379287 30.02346953 -19 30 C-19.02887236 26.18751574 -19.04675492 22.3750593 -19.0625 18.5625 C-19.07087891 17.47388672 -19.07925781 16.38527344 -19.08789062 15.26367188 C-19.09111328 14.22919922 -19.09433594 13.19472656 -19.09765625 12.12890625 C-19.10289307 11.17056885 -19.10812988 10.21223145 -19.11352539 9.22485352 C-19 7 -19 7 -18 6 C-16.48071962 5.92820036 -14.95832518 5.91607993 -13.4375 5.9375 C-12.61121094 5.94652344 -11.78492188 5.95554687 -10.93359375 5.96484375 C-10.29550781 5.97644531 -9.65742188 5.98804688 -9 6 C-9 5.34 -9 4.68 -9 4 C-7.88625 3.896875 -6.7725 3.79375 -5.625 3.6875 C-4.42875 3.460625 -3.2325 3.23375 -2 3 C-1.34 2.01 -0.68 1.02 0 0 Z " fill="#E6F4FD" transform="translate(29,0)"/>
<path d="M0 0 C3.37409559 -0.20453151 6.74658992 -0.32801449 10.125 -0.4375 C11.07632812 -0.49615234 12.02765625 -0.55480469 13.0078125 -0.61523438 C17.6784265 -0.72875624 21.16258704 -0.64066551 24.6875 2.65625 C28.54254463 8.10065513 27.37886219 14.61601846 26.875 20.9375 C26.80023437 22.19369141 26.72546875 23.44988281 26.6484375 24.74414062 C26.46062665 27.83128148 26.23411817 30.91602525 26 34 C19.07 34 12.14 34 5 34 C4.96132812 31.03773437 4.96132812 31.03773437 4.921875 28.015625 C4.86560187 25.42706099 4.80825437 22.83852018 4.75 20.25 C4.73582031 18.94804688 4.72164062 17.64609375 4.70703125 16.3046875 C4.67480469 15.05429687 4.64257812 13.80390625 4.609375 12.515625 C4.58842773 11.36352539 4.56748047 10.21142578 4.54589844 9.02441406 C3.89531169 5.42000056 2.69899247 4.36312979 0 2 C0 1.34 0 0.68 0 0 Z " fill="#FEC243" transform="translate(4,30)"/>
<path d="M0 0 C3.125 -0.1875 3.125 -0.1875 6 0 C6.66 1.32 7.32 2.64 8 4 C10.64 4 13.28 4 16 4 C16 4.66 16 5.32 16 6 C18.97 6 21.94 6 25 6 C26.25248502 8.50497004 26.11374406 10.20853274 26.09765625 13.0078125 C26.09443359 13.99394531 26.09121094 14.98007813 26.08789062 15.99609375 C26.07532227 17.54490234 26.07532227 17.54490234 26.0625 19.125 C26.05798828 20.16527344 26.05347656 21.20554687 26.04882812 22.27734375 C26.03701952 24.85161962 26.02055075 27.42578146 26 30 C24.35 30 22.7 30 21 30 C21 23.4 21 16.8 21 10 C19.02 10 17.04 10 15 10 C14.67 11.32 14.34 12.64 14 14 C6.74 14 -0.52 14 -8 14 C-8.33 12.68 -8.66 11.36 -9 10 C-10.98 10 -12.96 10 -15 10 C-15 16.6 -15 23.2 -15 30 C-16.32 30 -17.64 30 -19 30 C-19.02887236 26.18751574 -19.04675492 22.3750593 -19.0625 18.5625 C-19.07087891 17.47388672 -19.07925781 16.38527344 -19.08789062 15.26367188 C-19.09111328 14.22919922 -19.09433594 13.19472656 -19.09765625 12.12890625 C-19.10289307 11.17056885 -19.10812988 10.21223145 -19.11352539 9.22485352 C-19 7 -19 7 -18 6 C-16.48071962 5.92820036 -14.95832518 5.91607993 -13.4375 5.9375 C-12.61121094 5.94652344 -11.78492188 5.95554687 -10.93359375 5.96484375 C-10.29550781 5.97644531 -9.65742188 5.98804688 -9 6 C-9 5.34 -9 4.68 -9 4 C-7.88625 3.896875 -6.7725 3.79375 -5.625 3.6875 C-4.42875 3.460625 -3.2325 3.23375 -2 3 C-1.34 2.01 -0.68 1.02 0 0 Z " fill="#AED8FE" transform="translate(29,0)"/>
<path d="M0 0 C1.68319336 0.04060547 1.68319336 0.04060547 3.40039062 0.08203125 C6.16472459 0.15260999 8.92512415 0.25115512 11.6875 0.375 C10.53576645 2.84300047 9.63966435 4.42283565 7.6875 6.375 C5.16552734 6.60205078 5.16552734 6.60205078 2.0234375 6.5703125 C0.90195312 6.56386719 -0.21953125 6.55742188 -1.375 6.55078125 C-2.550625 6.53402344 -3.72625 6.51726563 -4.9375 6.5 C-6.71253906 6.48646484 -6.71253906 6.48646484 -8.5234375 6.47265625 C-11.45332523 6.44902812 -14.3828134 6.41608514 -17.3125 6.375 C-12.98683685 -1.0655312 -8.06187804 -0.36751986 0 0 Z " fill="#EBA026" transform="translate(48.3125,29.625)"/>
<path d="M0 0 C3.3 0 6.6 0 10 0 C11.25248502 2.50497004 11.11374406 4.20853274 11.09765625 7.0078125 C11.09443359 7.99394531 11.09121094 8.98007813 11.08789062 9.99609375 C11.07951172 11.02863281 11.07113281 12.06117187 11.0625 13.125 C11.05798828 14.16527344 11.05347656 15.20554687 11.04882812 16.27734375 C11.03701952 18.85161962 11.02055075 21.42578146 11 24 C9.35 24 7.7 24 6 24 C6 17.4 6 10.8 6 4 C4.02 4 2.04 4 0 4 C0 2.68 0 1.36 0 0 Z " fill="#31AAFE" transform="translate(44,6)"/>
<path d="M0 0 C3.41637953 -0.11632513 6.83224897 -0.18728897 10.25 -0.25 C11.70212891 -0.30027344 11.70212891 -0.30027344 13.18359375 -0.3515625 C20.36321333 -0.45059174 20.36321333 -0.45059174 23.671875 1.890625 C25 4 25 4 25 6 C21.58362047 6.11632513 18.16775103 6.18728897 14.75 6.25 C13.29787109 6.30027344 13.29787109 6.30027344 11.81640625 6.3515625 C4.63678667 6.45059174 4.63678667 6.45059174 1.328125 4.109375 C0 2 0 2 0 0 Z " fill="#FDB238" transform="translate(4,30)"/>
<path d="M0 0 C1.23556641 0.01740234 1.23556641 0.01740234 2.49609375 0.03515625 C3.32238281 0.04417969 4.14867187 0.05320312 5 0.0625 C5.63808594 0.07410156 6.27617187 0.08570313 6.93359375 0.09765625 C6.93359375 1.41765625 6.93359375 2.73765625 6.93359375 4.09765625 C4.95359375 4.09765625 2.97359375 4.09765625 0.93359375 4.09765625 C0.93359375 10.69765625 0.93359375 17.29765625 0.93359375 24.09765625 C-0.38640625 24.09765625 -1.70640625 24.09765625 -3.06640625 24.09765625 C-3.09527861 20.28517199 -3.11316117 16.47271555 -3.12890625 12.66015625 C-3.13728516 11.57154297 -3.14566406 10.48292969 -3.15429688 9.36132812 C-3.15751953 8.32685547 -3.16074219 7.29238281 -3.1640625 6.2265625 C-3.16929932 5.2682251 -3.17453613 4.3098877 -3.17993164 3.32250977 C-3.03178558 0.41916553 -2.90378825 0.13723007 0 0 Z " fill="#26A5FE" transform="translate(13.06640625,5.90234375)"/>
<path d="M0 0 C0.99 0.33 1.98 0.66 3 1 C2.43040847 4.62613199 1.07625466 6.25517741 -1.5625 8.75 C-2.20316406 9.36359375 -2.84382813 9.9771875 -3.50390625 10.609375 C-3.99761719 11.06828125 -4.49132812 11.5271875 -5 12 C-7.31 10.02 -9.62 8.04 -12 6 C-11.34 5.01 -10.68 4.02 -10 3 C-7.525 3.99 -7.525 3.99 -5 5 C-3.35 3.35 -1.7 1.7 0 0 Z " fill="#4DCE92" transform="translate(36,18)"/>
<path d="M0 0 C0.66 0 1.32 0 2 0 C2 6.6 2 13.2 2 20 C0.68 19.67 -0.64 19.34 -2 19 C-1.67 18.67 -1.34 18.34 -1 18 C-0.84417697 16.65984779 -0.74955858 15.31241097 -0.68359375 13.96484375 C-0.62075195 12.75151367 -0.62075195 12.75151367 -0.55664062 11.51367188 C-0.51732422 10.66353516 -0.47800781 9.81339844 -0.4375 8.9375 C-0.39431641 8.08349609 -0.35113281 7.22949219 -0.30664062 6.34960938 C-0.20023298 4.23327963 -0.09958269 2.11666187 0 0 Z " fill="#D8ECFE" transform="translate(48,10)"/>
<path d="M0 0 C-1.65 1.98 -3.3 3.96 -5 6 C-6.98 4.35 -8.96 2.7 -11 1 C-7.2297564 -1.56376565 -4.32597804 -0.83191885 0 0 Z " fill="#D9E8F2" transform="translate(36,30)"/>
<path d="M0 0 C1.98 0 3.96 0 6 0 C6 1.32 6 2.64 6 4 C4.02 4 2.04 4 0 4 C0 2.68 0 1.36 0 0 Z " fill="#EAF3F7" transform="translate(44,56)"/>
</svg>
