<?xml version="1.0" standalone="no"?>
<!DOCTYPE svg PUBLIC "-//W3C//DTD SVG 20010904//EN"
 "http://www.w3.org/TR/2001/REC-SVG-20010904/DTD/svg10.dtd">
<svg version="1.0" xmlns="http://www.w3.org/2000/svg"
 width="64.000000pt" height="64.000000pt" viewBox="0 0 64.000000 64.000000"
 preserveAspectRatio="xMidYMid meet">

<g transform="translate(0.000000,64.000000) scale(0.100000,-0.100000)"
fill="#000000" stroke="none">
<path d="M163 633 c-7 -2 -13 -11 -13 -18 0 -8 -9 -17 -20 -20 -11 -3 -20 -11
-20 -16 0 -5 -11 -14 -25 -19 l-25 -10 0 -175 c0 -115 3 -174 10 -170 6 4 10
72 10 171 0 103 4 164 10 164 6 0 10 -86 10 -239 0 -204 2 -242 16 -255 12
-13 40 -16 139 -16 171 0 173 19 3 22 l-133 3 0 258 c0 164 4 257 10 257 6 0
11 -11 13 -25 5 -41 22 -18 22 31 l0 44 140 0 140 0 0 -43 c0 -54 13 -67 67
-67 l43 0 0 -205 0 -205 -195 0 -195 0 0 195 c0 126 -4 195 -10 195 -7 0 -9
-70 -8 -202 l3 -203 183 -3 c140 -2 183 -5 179 -15 -2 -7 -26 -13 -55 -15 -58
-3 -70 -19 -19 -25 17 -2 -57 -5 -165 -5 l-198 -2 0 80 c0 47 -4 80 -10 80
-15 0 -13 -153 2 -168 8 -8 68 -12 203 -12 178 0 194 1 215 20 13 11 27 20 31
20 4 0 10 9 14 19 3 10 15 21 25 24 19 5 20 15 20 224 l0 219 -58 57 -58 57
-144 -1 c-80 0 -151 -3 -157 -6z m357 -101 c-36 -6 -50 5 -50 40 l0 32 36 -35
c33 -32 34 -34 14 -37z"/>
<path d="M230 430 c0 -6 52 -10 136 -10 87 0 133 4 129 10 -4 6 -60 10 -136
10 -79 0 -129 -4 -129 -10z"/>
<path d="M230 360 c0 -6 52 -10 136 -10 87 0 133 4 129 10 -4 6 -60 10 -136
10 -79 0 -129 -4 -129 -10z"/>
<path d="M230 290 c0 -6 52 -10 136 -10 87 0 133 4 129 10 -8 13 -265 13 -265
0z"/>
</g>
</svg>
