<?xml version="1.0" encoding="UTF-8"?>
<svg version="1.1" xmlns="http://www.w3.org/2000/svg" width="64" height="64">
<path d="M0 0 C6.28335649 4.57076577 9.5667825 9.93840462 11.12109375 17.54296875 C11.93195368 23.14891396 11.09620695 26.72522956 8.62109375 31.79296875 C7.34843813 34.52389832 7.34843813 34.52389832 7.12109375 37.54296875 C8.7749052 41.38339173 10.77752506 44.52971986 13.23046875 47.890625 C15.12109375 50.54296875 15.12109375 50.54296875 15.12109375 52.54296875 C11.82109375 52.54296875 8.52109375 52.54296875 5.12109375 52.54296875 C3.80109375 55.18296875 2.48109375 57.82296875 1.12109375 60.54296875 C-3.01830007 58.47327184 -3.60362102 57.89351104 -5.62890625 54.04296875 C-6.056875 53.24890625 -6.48484375 52.45484375 -6.92578125 51.63671875 C-7.87890625 49.54296875 -7.87890625 49.54296875 -7.87890625 47.54296875 C-12.49890625 47.54296875 -17.11890625 47.54296875 -21.87890625 47.54296875 C-22.53890625 49.52296875 -23.19890625 51.50296875 -23.87890625 53.54296875 C-25.09765625 55.66015625 -25.09765625 55.66015625 -26.37890625 57.41796875 C-26.80171875 58.01351562 -27.22453125 58.6090625 -27.66015625 59.22265625 C-28.06234375 59.65835938 -28.46453125 60.0940625 -28.87890625 60.54296875 C-29.53890625 60.54296875 -30.19890625 60.54296875 -30.87890625 60.54296875 C-32.19890625 57.90296875 -33.51890625 55.26296875 -34.87890625 52.54296875 C-38.17890625 52.54296875 -41.47890625 52.54296875 -44.87890625 52.54296875 C-43.36746765 48.28345997 -41.18910868 44.63929264 -38.8046875 40.82421875 C-37.3069406 37.13356816 -38.50063055 34.47753224 -39.94140625 30.91796875 C-42.00330212 23.49514363 -41.66711356 16.49325756 -38.1328125 9.609375 C-29.90088325 -3.95663925 -14.15894183 -8.30006935 0 0 Z " fill="#FED05B" transform="translate(46.87890625,3.45703125)"/>
<path d="M0 0 C5.13707018 2.12145219 8.93882532 5.34701449 12 10 C13.90195321 15.70585964 13.90252212 21.77146738 11.4375 27.3125 C8.8626555 31.83909496 5.02275676 35.07770217 0.015625 36.60546875 C-5.49763422 37.68461445 -9.41661041 37.68908821 -14.25 34.8125 C-18.45271152 31.89784938 -21.36011131 28.91966606 -23 24 C-23.5079081 17.77812579 -23.75354356 12.25496099 -20 7 C-13.96615355 0.94925202 -8.46285056 -1.24528432 0 0 Z " fill="#F8B74F" transform="translate(37,7)"/>
<path d="M0 0 C0.66 0 1.32 0 2 0 C5 5.75 5 5.75 5 8 C7.64 8 10.28 8 13 8 C13 8.99 13 9.98 13 11 C12.34 11.53625 11.68 12.0725 11 12.625 C8.01909059 16.16482992 8.65754124 19.54803614 9 24 C4.15384615 23.05769231 4.15384615 23.05769231 2 22.25 C-0.99047493 21.87619063 -2.55317897 23.39024932 -5 25 C-5.66 25 -6.32 25 -7 25 C-6.94199219 24.32453125 -6.88398438 23.6490625 -6.82421875 22.953125 C-6.68623024 20.22489502 -6.63893483 17.71011266 -7 15 C-9.29857106 12.32181017 -9.29857106 12.32181017 -12 11 C-11.67 10.01 -11.34 9.02 -11 8 C-9.9275 7.979375 -8.855 7.95875 -7.75 7.9375 C-4.07050859 7.40918155 -4.07050859 7.40918155 -2.64453125 5.375 C-1.67093205 3.63165991 -0.82627341 1.8178015 0 0 Z " fill="#FEFCF8" transform="translate(31,13)"/>
<path d="M0 0 C2.99876322 2.80319171 5.16322727 5.59434917 7.25 9.125 C7.77078125 9.99382813 8.2915625 10.86265625 8.828125 11.7578125 C10 14 10 14 10 16 C6.7 16 3.4 16 0 16 C-1.32 18.64 -2.64 21.28 -4 24 C-8.63828828 21.68085586 -9.11676295 20.43237006 -11.25 15.875 C-11.77078125 14.77929688 -12.2915625 13.68359375 -12.828125 12.5546875 C-13.40820312 11.29011719 -13.40820312 11.29011719 -14 10 C-13.24074219 9.61328125 -12.48148438 9.2265625 -11.69921875 8.828125 C-10.70535156 8.30734375 -9.71148437 7.7865625 -8.6875 7.25 C-7.70136719 6.73953125 -6.71523438 6.2290625 -5.69921875 5.703125 C-3.04549724 4.02870737 -1.66897803 2.62023855 0 0 Z " fill="#40596A" transform="translate(52,40)"/>
<path d="M0 0 C0.66 0 1.32 0 2 0 C2.680625 0.721875 3.36125 1.44375 4.0625 2.1875 C7.44283863 5.75111 11.67034523 7.78329222 16 10 C15.09846541 11.96534541 14.17819891 13.92210625 13.25 15.875 C12.73953125 16.96554688 12.2290625 18.05609375 11.703125 19.1796875 C10 22 10 22 6 24 C4.68 21.36 3.36 18.72 2 16 C-1.3 16 -4.6 16 -8 16 C-6.57250019 12.20950293 -4.83763458 8.72877544 -2.875 5.1875 C-2.33617187 4.21167969 -1.79734375 3.23585937 -1.2421875 2.23046875 C-0.83226562 1.49441406 -0.42234375 0.75835937 0 0 Z " fill="#3F5869" transform="translate(10,40)"/>
</svg>
