<?xml version="1.0" encoding="UTF-8"?>
<svg version="1.1" xmlns="http://www.w3.org/2000/svg" width="64" height="64">
<path d="M0 0 C4.40228895 2.50797067 7.01233571 5.47450712 8.625 10.3125 C9.36319787 17.80339312 8.49456435 22.92443952 4.625 29.3125 C2.08505139 33.97644745 0.16253281 37.93717193 -0.375 43.3125 C-1.035 43.3125 -1.695 43.3125 -2.375 43.3125 C-2.375 44.9625 -2.375 46.6125 -2.375 48.3125 C-3.365 48.3125 -4.355 48.3125 -5.375 48.3125 C-5.375 49.6325 -5.375 50.9525 -5.375 52.3125 C-11.125 53.4375 -11.125 53.4375 -13.375 52.3125 C-13.375 50.9925 -13.375 49.6725 -13.375 48.3125 C-14.365 48.3125 -15.355 48.3125 -16.375 48.3125 C-16.705 47.3225 -17.035 46.3325 -17.375 45.3125 C-18.035 45.9725 -18.695 46.6325 -19.375 47.3125 C-23 47.4375 -23 47.4375 -26.375 47.3125 C-26.705 48.3025 -27.035 49.2925 -27.375 50.3125 C-30.1875 50.5 -30.1875 50.5 -33.375 50.3125 C-34.9375 48.875 -34.9375 48.875 -36.375 47.3125 C-37.220625 47.1475 -38.06625 46.9825 -38.9375 46.8125 C-41.375 46.3125 -41.375 46.3125 -43.375 43.3125 C-43.375 41.9925 -43.375 40.6725 -43.375 39.3125 C-44.035 38.9825 -44.695 38.6525 -45.375 38.3125 C-45.375 36.0025 -45.375 33.6925 -45.375 31.3125 C-44.385 31.3125 -43.395 31.3125 -42.375 31.3125 C-42.601875 30.384375 -42.82875 29.45625 -43.0625 28.5 C-43.375 25.3125 -43.375 25.3125 -42.375 23.4375 C-39.39205366 21.75959269 -36.72529961 22.1228604 -33.375 22.3125 C-33.375 21.3225 -33.375 20.3325 -33.375 19.3125 C-31.395 19.3125 -29.415 19.3125 -27.375 19.3125 C-27.42140625 18.66023438 -27.4678125 18.00796875 -27.515625 17.3359375 C-27.7597252 11.4252255 -27.51834929 7.89199132 -23.375 3.3125 C-16.27776829 -2.04663415 -8.33107384 -3.87637207 0 0 Z " fill="#E2F0FC" transform="translate(46.375,10.6875)"/>
<path d="M0 0 C1.98 0 3.96 0 6 0 C6.39832031 0.73605469 6.79664062 1.47210937 7.20703125 2.23046875 C7.73683594 3.20628906 8.26664063 4.18210937 8.8125 5.1875 C9.33457031 6.15042969 9.85664063 7.11335938 10.39453125 8.10546875 C11.41851737 9.95163351 12.49885367 11.7683765 13.6484375 13.5390625 C15.1180458 16.21493888 15.54250272 18.16261524 15.8125 21.1875 C15.90144531 22.04730469 15.99039062 22.90710938 16.08203125 23.79296875 C16 26 16 26 14 28 C10.375 28.125 10.375 28.125 7 28 C6.67 28.99 6.34 29.98 6 31 C3.1875 31.1875 3.1875 31.1875 0 31 C-1.5625 29.5625 -1.5625 29.5625 -3 28 C-3.845625 27.835 -4.69125 27.67 -5.5625 27.5 C-8 27 -8 27 -10 24 C-10 22.68 -10 21.36 -10 20 C-10.66 19.67 -11.32 19.34 -12 19 C-12 16.69 -12 14.38 -12 12 C-11.01 12 -10.02 12 -9 12 C-9.226875 11.071875 -9.45375 10.14375 -9.6875 9.1875 C-10 6 -10 6 -9 4.125 C-6.01705366 2.44709269 -3.35029961 2.8103604 0 3 C0 2.01 0 1.02 0 0 Z " fill="#FEDD55" transform="translate(13,30)"/>
<path d="M0 0 C6.02622231 0.2678321 10.31239899 0.85746888 15 5 C18.88587521 10.01073383 19.63201516 13.98624656 19.390625 20.296875 C18.79362218 24.4281345 17.13837668 27.4698663 15 31 C12.46005139 35.66394745 10.53753281 39.62467193 10 45 C9.34 45 8.68 45 8 45 C8 46.65 8 48.3 8 50 C7.01 50 6.02 50 5 50 C5 51.32 5 52.64 5 54 C-0.75 55.125 -0.75 55.125 -3 54 C-3 52.68 -3 51.36 -3 50 C-3.99 50 -4.98 50 -6 50 C-6 48.35 -6 46.7 -6 45 C-6.66 45 -7.32 45 -8 45 C-8 43.35 -8 41.7 -8 40 C-3.05 40 1.9 40 7 40 C7.66 37.69 8.32 35.38 9 33 C10.25390625 30.671875 10.25390625 30.671875 11.5625 28.75 C15.21384151 23.33257937 15.7126734 18.43413592 15 12 C12.65207342 7.1235371 9.71239146 4.59662386 5 2 C2.2717496 1.21784412 2.2717496 1.21784412 0 1 C0 0.67 0 0.34 0 0 Z " fill="#CFE8FF" transform="translate(36,9)"/>
<path d="M0 0 C2.64 0 5.28 0 8 0 C6.125 5.75 6.125 5.75 5 8 C7.31 8 9.62 8 12 8 C10.70396588 10.82868857 9.30810402 12.9701021 7.1796875 15.234375 C6.64472656 15.80800781 6.10976563 16.38164062 5.55859375 16.97265625 C5.00300781 17.55917969 4.44742188 18.14570312 3.875 18.75 C3.31167969 19.35199219 2.74835937 19.95398438 2.16796875 20.57421875 C0.78275854 22.05334151 -0.6080729 23.52719641 -2 25 C-3.13643966 21.59068103 -2.86747764 20.99664544 -1.5625 17.8125 C-1.27503906 17.09707031 -0.98757812 16.38164062 -0.69140625 15.64453125 C-0.34916016 14.83048828 -0.34916016 14.83048828 0 14 C-2.31 14 -4.62 14 -7 14 C-5.23570801 9.02790438 -2.6060834 4.56561939 0 0 Z " fill="#FDDD58" transform="translate(34,15)"/>
<path d="M0 0 C2.5 1.5625 2.5 1.5625 4 4 C4.72468526 8.42863214 4.49454049 10.28066838 1.9375 14 C-1 16 -1 16 -4.5625 16.125 C-8.66488116 14.78240253 -10.00630003 13.82125828 -12 10 C-11.94021398 6.53241058 -11.60965977 4.11173251 -9.9375 1.0625 C-6.73507415 -0.69366901 -3.50309274 -0.62026592 0 0 Z " fill="#FBFDF5" transform="translate(20,38)"/>
<path d="M0 0 C4.62 0 9.24 0 14 0 C14 1.65 14 3.3 14 5 C13.01 5 12.02 5 11 5 C11 6.32 11 7.64 11 9 C5.25 10.125 5.25 10.125 3 9 C3 7.68 3 6.36 3 5 C2.01 5 1.02 5 0 5 C0 3.35 0 1.7 0 0 Z " fill="#BCC3CC" transform="translate(30,54)"/>
<path d="M0 0 C0.46455163 3.99514406 0.28682179 5.59149623 -2.0625 8.9375 C-5 11 -5 11 -8.625 11 C-13.50231839 9.55486862 -13.50231839 9.55486862 -15 7 C-15.1875 3.8125 -15.1875 3.8125 -15 1 C-13.02 2.65 -11.04 4.3 -9 6 C-8.51789062 5.566875 -8.03578125 5.13375 -7.5390625 4.6875 C-6.90742188 4.130625 -6.27578125 3.57375 -5.625 3 C-4.99851562 2.443125 -4.37203125 1.88625 -3.7265625 1.3125 C-2 0 -2 0 0 0 Z " fill="#FDFDF8" transform="translate(24,43)"/>
<path d="M0 0 C5.94 0 11.88 0 18 0 C18 1.65 18 3.3 18 5 C12.06 5 6.12 5 0 5 C0 3.35 0 1.7 0 0 Z " fill="#D8DDE2" transform="translate(28,49)"/>
<path d="M0 0 C2.64 0 5.28 0 8 0 C8 1.32 8 2.64 8 4 C2.25 5.125 2.25 5.125 0 4 C0 2.68 0 1.36 0 0 Z " fill="#A7B0BC" transform="translate(33,59)"/>
<path d="M0 0 C-1.49097658 3.7952131 -3.75700849 5.61042731 -7 8 C-7.99 7.01 -8.98 6.02 -10 5 C-9.67 4.01 -9.34 3.02 -9 2 C-7.515 2.99 -7.515 2.99 -6 4 C-5.38125 3.34 -4.7625 2.68 -4.125 2 C-2 0 -2 0 0 0 Z " fill="#9CF09C" transform="translate(21,42)"/>
<path d="M0 0 C1.65 0 3.3 0 5 0 C5.33 0.99 5.66 1.98 6 3 C3.69 3 1.38 3 -1 3 C-0.67 2.01 -0.34 1.02 0 0 Z " fill="#D2E5FF" transform="translate(11,25)"/>
<path d="M0 0 C0.99 0 1.98 0 3 0 C2.6875 1.875 2.6875 1.875 2 4 C1.01 4.66 0.02 5.32 -1 6 C-1.33 5.01 -1.66 4.02 -2 3 C-1.34 2.01 -0.68 1.02 0 0 Z " fill="#D0EBFF" transform="translate(48,4)"/>
<path d="M0 0 C0.99 0 1.98 0 3 0 C3.66 1.65 4.32 3.3 5 5 C4.01 5.495 4.01 5.495 3 6 C1.5 4.6875 1.5 4.6875 0 3 C0 2.01 0 1.02 0 0 Z " fill="#D5EBFF" transform="translate(23,4)"/>
<path d="M0 0 C0.66 0 1.32 0 2 0 C2 2.31 2 4.62 2 7 C1.01 6.67 0.02 6.34 -1 6 C-1.042721 4.33388095 -1.04063832 2.66617115 -1 1 C-0.67 0.67 -0.34 0.34 0 0 Z " fill="#CFE9FF" transform="translate(36,0)"/>
<path d="M0 0 C0 0.99 0 1.98 0 3 C-1.98 3.33 -3.96 3.66 -6 4 C-5.67 3.01 -5.34 2.02 -5 1 C-3 0 -3 0 0 0 Z " fill="#CDE6FF" transform="translate(60,13)"/>
<path d="M0 0 C2.475 0.495 2.475 0.495 5 1 C5.33 1.99 5.66 2.98 6 4 C3.03 3.505 3.03 3.505 0 3 C0 2.01 0 1.02 0 0 Z " fill="#CDE9FF" transform="translate(14,13)"/>
<path d="M0 0 C0.99 0 1.98 0 3 0 C3 1.32 3 2.64 3 4 C1.02 4.33 -0.96 4.66 -3 5 C-1.6875 2.5 -1.6875 2.5 0 0 Z " fill="#909AA7" transform="translate(38,59)"/>
<path d="M0 0 C1.65 0 3.3 0 5 0 C5 0.99 5 1.98 5 3 C3.02 3 1.04 3 -1 3 C-0.67 2.01 -0.34 1.02 0 0 Z " fill="#CFE7FF" transform="translate(58,25)"/>
</svg>
