<?xml version="1.0" encoding="UTF-8"?>
<svg version="1.1" xmlns="http://www.w3.org/2000/svg" width="64" height="64">
<path d="M0 0 C2.31092244 1.15127477 4.56193156 2.29240031 6.40625 4.13671875 C7.39625 3.80671875 8.38625 3.47671875 9.40625 3.13671875 C15.09887838 2.57287746 19.55569138 2.82951969 24.40625 6.13671875 C28.74897681 10.55005901 30.57259128 13.70189713 30.71875 19.88671875 C30.66821419 25.16771084 30.10033863 28.14310942 26.40625 32.13671875 C22.10745604 36.01611817 19.09253783 37.27865185 13.34375 37.26171875 C12.02697266 37.26558594 12.02697266 37.26558594 10.68359375 37.26953125 C8.40625 37.13671875 8.40625 37.13671875 6.40625 36.13671875 C6.14457031 36.87019531 5.88289063 37.60367188 5.61328125 38.359375 C4.38966624 41.17487749 3.01125348 43.1890315 1.09375 45.57421875 C0.47757813 46.34507813 -0.13859375 47.1159375 -0.7734375 47.91015625 C-3.02864268 50.66866902 -5.29219353 53.41669746 -7.59375 56.13671875 C-16.93416027 52.7242972 -24.43084184 38.12051674 -28.40234375 29.59375 C-30.58660086 23.25582362 -31.12078241 17.01303179 -28.62890625 10.6875 C-22.50550578 0.10360333 -11.70478377 -3.89571869 0 0 Z M-0.59375 8.13671875 C0.40625 10.13671875 0.40625 10.13671875 0.40625 10.13671875 Z M2.40625 14.13671875 C0.95551895 18.37731721 0.86632215 21.78689913 2.53125 25.94921875 C6.25053356 30.40873316 6.25053356 30.40873316 11.51953125 32.55859375 C15.62830023 32.80719154 18.53719271 32.51017979 21.84375 29.94921875 C25.06421424 26.49042224 25.06421424 26.49042224 26.40625 22.13671875 C26.05367982 17.34692384 25.35250777 14.08297652 21.90625 10.63671875 C14.50820219 6.19789007 7.52232646 6.91228802 2.40625 14.13671875 Z M-14.59375 10.13671875 C-17.67149172 12.59891212 -19.2950775 14.2780353 -20.59375 18.01171875 C-20.59375 22.82618484 -19.14182441 26.53526246 -15.78125 30.01171875 C-11.46170645 32.23319829 -8.43235896 32.33960801 -3.71875 31.19921875 C-2.6875 30.84859375 -1.65625 30.49796875 -0.59375 30.13671875 C-0.92375 29.31171875 -1.25375 28.48671875 -1.59375 27.63671875 C-3.39153177 21.34448254 -3.03808193 16.24754859 -0.59375 10.13671875 C-6.00070415 8.4586985 -9.3249069 7.4437545 -14.59375 10.13671875 Z M-0.59375 30.13671875 C0.40625 32.13671875 0.40625 32.13671875 0.40625 32.13671875 Z " fill="#000000" transform="translate(31.59375,0.86328125)"/>
<path d="M0 0 C1.91267915 1.87619753 3.39027058 3.83836336 5 6 C7.96582122 4.83485595 8.98514189 4.02203099 10.8125 1.3125 C11.534375 0.549375 12.25625 -0.21375 13 -1 C17.70220994 -1 21.35086232 -0.00517221 25 3 C25.8125 5.6875 25.8125 5.6875 26 8 C19.12261706 12.84542889 14.43761756 13.20225879 6.25 13.25 C4.94675781 13.2809375 4.94675781 13.2809375 3.6171875 13.3125 C-2.29040714 13.34798105 -6.6217048 12.48414532 -12 10 C-12.66 9.34 -13.32 8.68 -14 8 C-13.9375 5.5625 -13.9375 5.5625 -13 3 C-8.75800991 -0.12567691 -5.11383789 -1.82637067 0 0 Z " fill="#000000" transform="translate(17,51)"/>
<path d="M0 0 C0.67548578 2.05962852 1.34004312 4.12284322 2 6.1875 C2.37125 7.33605469 2.7425 8.48460937 3.125 9.66796875 C3.914084 12.6728288 4.34935322 14.92678335 4 18 C2 20 2 20 -1.125 20.125 C-2.548125 20.063125 -2.548125 20.063125 -4 20 C-7.21964531 14.14609943 -9 8.73292338 -9 2 C-2.25 0 -2.25 0 0 0 Z " fill="#000000" transform="translate(56,42)"/>
<path d="M0 0 C0.99 0 1.98 0 3 0 C3 1.98 3 3.96 3 6 C4.98 6 6.96 6 9 6 C8.67 6.99 8.34 7.98 8 9 C5.66705225 9.04241723 3.33297433 9.04092937 1 9 C0 8 0 8 -0.09765625 6.15234375 C-0.06510417 4.1015625 -0.03255208 2.05078125 0 0 Z " fill="#000000" transform="translate(44,14)"/>
<path d="M0 0 C0.33 1.32 0.66 2.64 1 4 C-0.98 4.33 -2.96 4.66 -5 5 C-5.33 3.68 -5.66 2.36 -6 1 C-3 0 -3 0 0 0 Z " fill="#000000" transform="translate(53,38)"/>
</svg>
