<?xml version="1.0" encoding="UTF-8"?>
<svg version="1.1" xmlns="http://www.w3.org/2000/svg" width="64" height="64">
<path d="M0 0 C1.42578125 1.25390625 1.42578125 1.25390625 2.42578125 3.94140625 C2.42578125 5.03453125 2.42578125 6.12765625 2.42578125 7.25390625 C2.43738281 8.04152344 2.44898437 8.82914063 2.4609375 9.640625 C2.485186 11.8472389 2.46990422 14.04775788 2.42578125 16.25390625 C3.32941406 16.43566406 4.23304687 16.61742188 5.1640625 16.8046875 C6.34355469 17.05605469 7.52304687 17.30742188 8.73828125 17.56640625 C9.91003906 17.81003906 11.08179688 18.05367187 12.2890625 18.3046875 C16.9368425 19.71117634 16.9368425 19.71117634 18.42578125 22.25390625 C18.75091134 25.01897658 18.89029506 27.49358605 18.86328125 30.25390625 C18.89325195 31.34058594 18.89325195 31.34058594 18.92382812 32.44921875 C18.91895235 37.73455834 18.91895235 37.73455834 16.5859375 40.19140625 C12.29206866 42.30339961 8.79723802 42.41809359 4.05078125 42.44140625 C2.74367188 42.45558594 1.4365625 42.46976563 0.08984375 42.484375 C-3.39879286 42.2649405 -5.42000717 41.61006485 -8.57421875 40.25390625 C-11.81665918 39.74258273 -15.05811888 39.37375677 -18.3203125 39.01171875 C-22.27258479 38.09126158 -24.47114338 36.87860193 -27.57421875 34.25390625 C-28.3347168 30.92578125 -28.3347168 30.92578125 -28.3359375 27.00390625 C-28.33930618 26.3087793 -28.34267487 25.61365234 -28.34614563 24.89746094 C-28.34584737 23.43156516 -28.33065193 21.96560618 -28.30151367 20.5 C-28.26182277 18.25977759 -28.28080214 16.02547617 -28.30664062 13.78515625 C-28.29908095 12.35805002 -28.28812688 10.9309569 -28.2734375 9.50390625 C-28.25543091 7.56257813 -28.25543091 7.56257813 -28.23706055 5.58203125 C-27.57421875 2.25390625 -27.57421875 2.25390625 -25.15258789 -0.15356445 C-17.94866676 -4.60306522 -7.23500236 -4.29905938 0 0 Z M-15.57421875 33.25390625 C-15.57421875 33.58390625 -15.57421875 33.91390625 -15.57421875 34.25390625 C-13.92421875 34.25390625 -12.27421875 34.25390625 -10.57421875 34.25390625 C-10.57421875 33.92390625 -10.57421875 33.59390625 -10.57421875 33.25390625 C-12.22421875 33.25390625 -13.87421875 33.25390625 -15.57421875 33.25390625 Z " fill="#000000" transform="translate(41.57421875,19.74609375)"/>
<path d="M0 0 C1.32 0 2.64 0 4 0 C4 2.97 4 5.94 4 9 C4.66 9.33 5.32 9.66 6 10 C4.35 11.32 2.7 12.64 1 14 C-0.55078125 12.85546875 -0.55078125 12.85546875 -2 11 C-1.85546875 8.30078125 -1.85546875 8.30078125 -1.1875 5.3125 C-0.97480469 4.31863281 -0.76210938 3.32476563 -0.54296875 2.30078125 C-0.36378906 1.54152344 -0.18460938 0.78226563 0 0 Z " fill="#000000" transform="translate(48,13)"/>
<path d="M0 0 C1.32 0 2.64 0 4 0 C4 2.97 4 5.94 4 9 C4.66 9.33 5.32 9.66 6 10 C5.01 11.32 4.02 12.64 3 14 C0 13 0 13 -1.1875 10.9375 C-1.455625 10.298125 -1.72375 9.65875 -2 9 C-1.34 9 -0.68 9 0 9 C0 6.03 0 3.06 0 0 Z " fill="#000000" transform="translate(6,13)"/>
<path d="M0 0 C1.32 0 2.64 0 4 0 C4 2.64 4 5.28 4 8 C4.66 8.33 5.32 8.66 6 9 C5.01 10.32 4.02 11.64 3 13 C1.0625 12.1875 1.0625 12.1875 -1 11 C-1.33 10.01 -1.66 9.02 -2 8 C-1.34 8 -0.68 8 0 8 C0 5.36 0 2.72 0 0 Z " fill="#000000" transform="translate(27,2)"/>
</svg>
