<?xml version="1.0" encoding="UTF-8"?>
<svg version="1.1" xmlns="http://www.w3.org/2000/svg" width="64" height="64">
<path d="M0 0 C7.4383429 5.1218304 12.82934424 11.11219059 15 20 C16.59552345 30.78121835 15.32762571 39.85496431 9 49 C7.55078125 50.8828125 7.55078125 50.8828125 6 52 C2.63145621 51.79443926 0.99612115 50.33676578 -1.25 47.9375 C-2.03117187 47.11572266 -2.03117187 47.11572266 -2.828125 46.27734375 C-3.21484375 45.85582031 -3.6015625 45.43429688 -4 45 C-3.01461122 42.34703021 -2.05762201 40.08297569 -0.4375 37.75 C1.88992388 33.29753692 2.55497591 28.76992441 1.5625 23.81640625 C-0.57514331 17.39133062 -4.30873281 13.73181304 -10.3125 10.6875 C-11.53697975 10.11486899 -12.7646191 9.54871757 -14 9 C-13.7834375 9.73863281 -13.566875 10.47726563 -13.34375 11.23828125 C-9.51565232 25.18602602 -9.51565232 25.18602602 -11 32 C-12.83203125 33.8203125 -12.83203125 33.8203125 -15 35 C-18.67293796 34.77962372 -20.36966546 34.63033454 -23 32 C-24.09539896 24.06191403 -22.22071028 16.57420827 -20 9 C-26.18666195 11.49869065 -30.96244504 13.77409523 -34.16015625 19.828125 C-36.55553191 26.02267786 -36.54026251 31.17922111 -33.90234375 37.26953125 C-32.80631254 39.37144393 -31.56118767 41.21578552 -30 43 C-31.5595265 46.82792868 -33.83631836 49.36359864 -37 52 C-38.96875 51.90234375 -38.96875 51.90234375 -41 51 C-42.6328125 49.109375 -42.6328125 49.109375 -44.125 46.75 C-44.62257813 45.98171875 -45.12015625 45.2134375 -45.6328125 44.421875 C-49.9478541 36.77808703 -50.11947237 28.5766984 -49 20 C-46.4838329 11.42781096 -41.44824018 4.88717337 -34 0 C-23.06754379 -5.77811499 -10.91091733 -5.9021044 0 0 Z " fill="#FEAB2F" transform="translate(49,8)"/>
<path d="M0 0 C3.21043882 1.38188453 5.04936365 2.92421903 7.25 5.625 C7.77078125 6.25664062 8.2915625 6.88828125 8.828125 7.5390625 C9.40820312 8.26222656 9.40820312 8.26222656 10 9 C9.360625 9.969375 8.72125 10.93875 8.0625 11.9375 C5.31971494 16.79614782 4.23798046 21.70761025 5.51171875 27.2109375 C6.8099926 30.90655302 8.39933833 34.02781524 11 37 C9.4404735 40.82792868 7.16368164 43.36359864 4 46 C2.03125 45.90234375 2.03125 45.90234375 0 45 C-1.6328125 43.109375 -1.6328125 43.109375 -3.125 40.75 C-3.62257813 39.98171875 -4.12015625 39.2134375 -4.6328125 38.421875 C-8.9116853 30.84215748 -9.22043989 22.51983277 -8 14 C-6.20042478 8.75583909 -3.94933783 3.94933783 0 0 Z " fill="#98FE00" transform="translate(8,14)"/>
<path d="M0 0 C5.05988499 1.92495625 6.56623519 5.60949977 8.78125 10.31640625 C11.84457385 19.57510621 11.43797352 29.07577412 7.1875 37.875 C3.70272315 44.05295008 3.70272315 44.05295008 1 46 C-2.36854379 45.79443926 -4.00387885 44.33676578 -6.25 41.9375 C-6.77078125 41.38964844 -7.2915625 40.84179688 -7.828125 40.27734375 C-8.21484375 39.85582031 -8.6015625 39.43429688 -9 39 C-8.01461122 36.34703021 -7.05762201 34.08297569 -5.4375 31.75 C-3.13225011 27.33995673 -2.28727194 22.69199316 -3.578125 17.81640625 C-4.33607474 15.85093854 -5.1350672 13.9206596 -6 12 C-7.125 9.4375 -7.125 9.4375 -7 7 C-4.89553989 4.39812205 -2.52696735 2.18667748 0 0 Z " fill="#C80250" transform="translate(54,14)"/>
<path d="M0 0 C0.99 0.33 1.98 0.66 3 1 C3.90684782 3.49307327 4.59135424 5.80557682 5.1875 8.375 C5.35894531 9.09582764 5.53039063 9.81665527 5.70703125 10.55932617 C8.37668916 22.46287524 8.37668916 22.46287524 7 28 C5.1640625 29.8046875 5.1640625 29.8046875 3 31 C-0.67293796 30.77962372 -2.36966546 30.63033454 -5 28 C-6.49556283 18.92228142 -3.61256716 9.6246193 -1 1 C-0.67 0.67 -0.34 0.34 0 0 Z " fill="#033D4F" transform="translate(31,12)"/>
<path d="M0 0 C3.21043882 1.38188453 5.04936365 2.92421903 7.25 5.625 C7.77078125 6.25664062 8.2915625 6.88828125 8.828125 7.5390625 C9.40820312 8.26222656 9.40820312 8.26222656 10 9 C9.38125 10.03125 8.7625 11.0625 8.125 12.125 C6.29301955 15.31472483 5.0364253 18.45888021 4 22 C0.04 22 -3.92 22 -8 22 C-8.90330185 14.17138397 -5.95614955 8.66190986 -2 2 C-1.34 1.34 -0.68 0.68 0 0 Z " fill="#09D400" transform="translate(8,14)"/>
<path d="M0 0 C5.21484385 1.88187843 6.53466002 6.1332106 8.8046875 10.8671875 C10.35383152 14.92736236 10.49383128 17.72012891 10 22 C6.04 22 2.08 22 -2 22 C-6.77634195 10.444334 -6.77634195 10.444334 -7 7 C-5.56640625 4.98046875 -5.56640625 4.98046875 -3.5625 3.1875 C-2.57443359 2.28064453 -2.57443359 2.28064453 -1.56640625 1.35546875 C-1.04949219 0.90816406 -0.53257813 0.46085938 0 0 Z " fill="#FF1E59" transform="translate(54,14)"/>
<path d="M0 0 C0.19796511 3.89331373 0.33273131 6.97803956 -0.875 10.6875 C-4.15989093 14.26223425 -8.33603897 16.63691502 -13 18 C-16.33060358 16.98419669 -18.08721699 15.02932461 -20.25 12.375 C-20.77078125 11.74335938 -21.2915625 11.11171875 -21.828125 10.4609375 C-22.21484375 9.97882812 -22.6015625 9.49671875 -23 9 C-16.09936721 3.18993043 -9.29103598 -0.71469508 0 0 Z " fill="#FDE500" transform="translate(32,4)"/>
<path d="M0 0 C0.66 0 1.32 0 2 0 C7.68439286 20.22527282 7.68439286 20.22527282 6 27 C2.81045752 30 2.81045752 30 0 30 C0 20.1 0 10.2 0 0 Z " fill="#00172A" transform="translate(32,13)"/>
</svg>
