<?xml version="1.0" encoding="UTF-8"?>
<svg version="1.1" xmlns="http://www.w3.org/2000/svg" width="64" height="64">
<path d="M0 0 C3.6654257 1.24895987 6.27718538 3.23055217 8.9375 6.0625 C10.61391872 10.69730468 10.65006862 15.13520079 10 20 C7.9976035 24.004793 5.82001123 26.6587028 2 29 C-2.66252858 30.55417619 -6.48753327 30.54448802 -11.125 28.875 C-15.0393716 26.32214895 -18.10035906 23.66580719 -19.63671875 19.11328125 C-20.58073559 13.94656545 -19.64099858 9.52886068 -17 5 C-11.60612652 -0.1307577 -7.25514956 -0.78199217 0 0 Z M-7 2 C-6.01 2.495 -6.01 2.495 -5 3 C-4.67 3.66 -4.34 4.32 -4 5 C-4 4.34 -4 3.68 -4 3 C-3.34 2.67 -2.68 2.34 -2 2 C-3.65 2 -5.3 2 -7 2 Z M-15 7 C-14 9 -14 9 -14 9 Z M5 7 C6 9 6 9 6 9 Z M6 9 C7 11 7 11 7 11 Z M-17 11 C-17 13.64 -17 16.28 -17 19 C-15.78309467 17.23470405 -15.78309467 17.23470405 -15 15 C-15.78309467 12.76529595 -15.78309467 12.76529595 -17 11 Z M7 12 C6.67 12.99 6.34 13.98 6 15 C6.99 16.485 6.99 16.485 8 18 C8 16.02 8 14.04 8 12 C7.67 12 7.34 12 7 12 Z M-16 19 C-15.67 19.99 -15.34 20.98 -15 22 C-15 21.01 -15 20.02 -15 19 C-15.33 19 -15.66 19 -16 19 Z M5 20 C6 22 6 22 6 22 Z M-12 24 C-11.34 24.66 -10.68 25.32 -10 26 C-10 25.34 -10 24.68 -10 24 C-10.66 24 -11.32 24 -12 24 Z M1 24 C1.33 24.66 1.66 25.32 2 26 C2.33 25.34 2.66 24.68 3 24 C2.34 24 1.68 24 1 24 Z M-9 27 C-6.03 27 -3.06 27 0 27 C-4.5 24.36486891 -4.5 24.36486891 -9 27 Z " fill="#000000" transform="translate(54,23)"/>
<path d="M0 0 C3.96 0 7.92 0 12 0 C11.02638202 4.86808988 9.95842675 7.1450803 7 11 C6.34 11 5.68 11 5 11 C5 10.34 5 9.68 5 9 C-0.94 12.3 -6.88 15.6 -13 19 C-14.98 17.35 -16.96 15.7 -19 14 C-23.84490974 13.85968745 -28.95264524 17.07011175 -33.3125 19.0625 C-34.14845703 19.43955078 -34.98441406 19.81660156 -35.84570312 20.20507812 C-37.89927262 21.13211807 -39.95056287 22.06386878 -42 23 C-42 22.34 -42 21.68 -42 21 C-39.12196664 18.57188357 -35.92785913 16.54849098 -32.8125 14.4375 C-31.94818359 13.83486328 -31.08386719 13.23222656 -30.19335938 12.61132812 C-29.35224609 12.03705078 -28.51113281 11.46277344 -27.64453125 10.87109375 C-26.48981323 10.08109985 -26.48981323 10.08109985 -25.31176758 9.27514648 C-22.78626257 7.8821047 -20.87386089 7.23719005 -18 7 C-14.6875 8.9375 -14.6875 8.9375 -12 11 C-9.99006479 9.9352129 -7.9922239 8.84756779 -6 7.75 C-4.88625 7.14671875 -3.7725 6.5434375 -2.625 5.921875 C-1.75875 5.28765625 -0.8925 4.6534375 0 4 C0 2.68 0 1.36 0 0 Z " fill="#000000" transform="translate(51,2)"/>
<path d="M0 0 C21.12 0 42.24 0 64 0 C64 0.99 64 1.98 64 3 C42.88 3 21.76 3 0 3 C0 2.01 0 1.02 0 0 Z " fill="#000000" transform="translate(0,59)"/>
<path d="M0 0 C1.65 0 3.3 0 5 0 C5 8.58 5 17.16 5 26 C3.35 26 1.7 26 0 26 C0 17.42 0 8.84 0 0 Z " fill="#000000" transform="translate(24,27)"/>
<path d="M0 0 C1.65 0 3.3 0 5 0 C5 5.94 5 11.88 5 18 C3.35 18 1.7 18 0 18 C0 12.06 0 6.12 0 0 Z " fill="#000000" transform="translate(12,35)"/>
<path d="M0 0 C1.65 0 3.3 0 5 0 C5 3.63 5 7.26 5 11 C3.35 11 1.7 11 0 11 C0 7.37 0 3.74 0 0 Z " fill="#000000" transform="translate(0,42)"/>
</svg>
