<?xml version="1.0" encoding="UTF-8"?>
<svg version="1.1" xmlns="http://www.w3.org/2000/svg" width="64" height="64">
<path d="M0 0 C5.46185727 2.83716614 10.82235739 8.54519718 12.76953125 14.38671875 C12.91450248 16.55013555 12.990233 18.71864806 13.01953125 20.88671875 C13.0453125 22.03140625 13.07109375 23.17609375 13.09765625 24.35546875 C12.76953125 27.38671875 12.76953125 27.38671875 11.25390625 29.29296875 C10.7640625 29.65390625 10.27421875 30.01484375 9.76953125 30.38671875 C10.36121094 30.556875 10.95289063 30.72703125 11.5625 30.90234375 C16.38526415 32.38142965 20.06809123 33.80094873 23.76953125 37.38671875 C25.37483302 40.59732228 25.24508695 43.90377556 24.76953125 47.38671875 C22.24704123 51.75256687 19.3650015 53.48532954 14.76953125 55.38671875 C12.00328965 55.67115085 9.52225565 55.8082874 6.76953125 55.76171875 C6.08375 55.77332031 5.39796875 55.78492188 4.69140625 55.796875 C-0.01045296 55.76995596 -3.20123292 54.76648616 -7.23046875 52.38671875 C-7.23046875 53.37671875 -7.23046875 54.36671875 -7.23046875 55.38671875 C-13.8336556 54.62213922 -17.08829116 50.23817332 -21.23046875 45.38671875 C-23.80530052 41.84137347 -26.07323439 38.19841741 -28.23046875 34.38671875 C-28.86984375 33.27296875 -29.50921875 32.15921875 -30.16796875 31.01171875 C-32.04535304 24.60652528 -32.86173137 16.66291021 -29.73046875 10.51171875 C-22.5659823 0.24005358 -12.23220611 -3.36332112 0 0 Z " fill="#EB1919" transform="translate(35.23046875,4.61328125)"/>
<path d="M0 0 C4.59821429 3.67857143 4.59821429 3.67857143 5.8125 6.25 C6.32132435 10.82941911 6.4911012 13.07549792 4.1875 17.0625 C-0.80570512 21.66150472 -5.54643759 22.7373488 -12.1875 22.625 C-13.21617188 22.64240234 -13.21617188 22.64240234 -14.265625 22.66015625 C-18.97366232 22.63320184 -22.20302252 21.73589082 -26.1875 19.25 C-28.73419899 16.23417224 -30.02204557 14.13242364 -30.75 10.25 C-29.99770029 6.23773488 -28.19681175 3.86578637 -25.1875 1.25 C-18.27527047 -3.16206141 -7.31883044 -3.94811109 0 0 Z " fill="#272422" transform="translate(54.1875,37.75)"/>
<path d="M0 0 C5.46185727 2.83716614 10.82235739 8.54519718 12.76953125 14.38671875 C12.8642049 16.57256624 12.89942039 18.76132742 12.89453125 20.94921875 C12.89839844 22.68365234 12.89839844 22.68365234 12.90234375 24.453125 C12.76953125 27.38671875 12.76953125 27.38671875 11.76953125 29.38671875 C10.44953125 29.05671875 9.12953125 28.72671875 7.76953125 28.38671875 C7.85654297 27.2265625 7.85654297 27.2265625 7.9453125 26.04296875 C8.21457567 19.82683604 8.1680286 15.12064776 4.37890625 10.01171875 C0.37744503 5.97140839 -4.09012098 4.20348351 -9.73046875 3.82421875 C-14.81551334 4.08769256 -18.46682132 6.02237477 -22.23046875 9.38671875 C-25.47890064 13.15672984 -26.91044477 17.19187748 -26.609375 22.22265625 C-24.55856376 33.93553695 -16.61386665 42.09841509 -8.734375 50.44140625 C-7.23046875 52.38671875 -7.23046875 52.38671875 -7.23046875 55.38671875 C-13.8336556 54.62213922 -17.08829116 50.23817332 -21.23046875 45.38671875 C-23.80530052 41.84137347 -26.07323439 38.19841741 -28.23046875 34.38671875 C-28.86984375 33.27296875 -29.50921875 32.15921875 -30.16796875 31.01171875 C-32.04535304 24.60652528 -32.86173137 16.66291021 -29.73046875 10.51171875 C-22.5659823 0.24005358 -12.23220611 -3.36332112 0 0 Z " fill="#242020" transform="translate(35.23046875,4.61328125)"/>
<path d="M0 0 C4.08998175 1.80720124 6.66247347 4.19069751 9 8 C9.62819266 13.0255413 9.03320735 15.95572354 6 20 C3.24705395 23.21177039 0.96958591 23.86947882 -3.25 24.4375 C-8.1843364 23.86182742 -10.79803186 21.71753928 -14 18 C-15.23534045 14.29397865 -15.45528745 11.90246386 -15 8 C-10.91704021 1.64314568 -7.65816344 -0.51919752 0 0 Z " fill="#2A2121" transform="translate(29,14)"/>
<path d="M0 0 C3.31804319 1.33100211 5.48261708 3.48261708 8 6 C7.9375 8.375 7.9375 8.375 7 11 C1.65882986 15.9303109 -1.90787139 16.33553434 -9.0078125 16.29296875 C-14.09854817 15.79452857 -16.44065198 13.55934802 -20 10 C-19.9375 7.625 -19.9375 7.625 -19 5 C-13.01177778 -0.52758975 -7.9553832 -0.77892133 0 0 Z " fill="#34322C" transform="translate(48,40)"/>
<path d="M0 0 C4.0743356 0.84881992 5.54405875 2.30225596 8 5.625 C8.625 8.625 8.625 8.625 8 11.625 C5.54405875 14.94774404 4.0743356 16.40118008 0 17.25 C-4.0743356 16.40118008 -5.54405875 14.94774404 -8 11.625 C-8.625 8.625 -8.625 8.625 -8 5.625 C-5.54405875 2.30225596 -4.0743356 0.84881992 0 0 Z " fill="#EAEAEA" transform="translate(26,17.375)"/>
<path d="M0 0 C3.11259604 0.345844 4.82872813 0.87379967 7.375 2.75 C9 5 9 5 9.0625 7.5 C7.66837854 10.7802858 6.00800879 12.13789932 3 14 C2.01 13.67 1.02 13.34 0 13 C0.66 12.01 1.32 11.02 2 10 C2.33706208 6.03952054 2.09429461 3.40322874 0 0 Z " fill="#F1DD98" transform="translate(47,41)"/>
<path d="M0 0 C0.99 0.33 1.98 0.66 3 1 C2.01 2.485 2.01 2.485 1 4 C0.66293792 7.96047946 0.90570539 10.59677126 3 14 C-0.11259604 13.654156 -1.82872813 13.12620033 -4.375 11.25 C-6 9 -6 9 -6.0625 6.5 C-4.66837854 3.2197142 -3.00800879 1.86210068 0 0 Z " fill="#F1DD98" transform="translate(34,41)"/>
<path d="M0 0 C2.625 0.375 2.625 0.375 5 1 C5.625 3.375 5.625 3.375 6 6 C5.34 6.66 4.68 7.32 4 8 C1.375 7.625 1.375 7.625 -1 7 C-1.625 4.625 -1.625 4.625 -2 2 C-1.34 1.34 -0.68 0.68 0 0 Z " fill="#4D4D4D" transform="translate(40,44)"/>
</svg>
